<?xml version="1.0" encoding="UTF-8"?>
<svg id="Layer_2" data-name="Layer 2" xmlns="http://www.w3.org/2000/svg" viewBox="0 0 373.94 345.73">
  <defs>
    <style>
      .cls-1 {
        fill: #fff;
        stroke: #ed1c24;
        stroke-miterlimit: 10;
      }
    </style>
  </defs>
  <g id="Laag_1" data-name="Laag 1">
    <g>
      <path class="cls-1" d="M1.47,90.63c.12.77.24,1.53.38,2.3l.08.42c.45,2.42,1.02,4.91,1.7,7.4l.09.33c.06.22.11.44.17.65.12.43.25.87.38,1.3l.14.46c.14.47.28.94.43,1.41.13.42.27.84.41,1.25l.06.19c.19.58.39,1.16.59,1.75l.52,1.45c.19.52.38,1.03.57,1.54.17.46.36.92.54,1.38l.13.35c.07.18.14.37.21.55l.78,1.86c.31.74.64,1.48.96,2.21l.24.55c5.01,11.09,11.65,21.59,19.8,31.3l.09.11c.63.74,1.26,1.48,1.9,2.21l.35.4c.74.83,1.48,1.65,2.23,2.47,1.58,1.69,3.82,3.85,6.6,6.37-1.34.87-2.64,1.76-3.86,2.67-.84.63-1.67,1.29-2.47,1.98-.99.87-1.73,1.59-2.4,2.35-.43.49-.81,1-1.14,1.5-.34.53-.65,1.08-.92,1.66-.5,1.07-.87,2.24-1.12,3.47-.42,2.1-.48,4.41-.16,6.85.26,2.05.8,4.19,1.6,6.37h0c.74,2.01,1.68,3.97,2.79,5.84,1.13,1.89,2.43,3.64,3.87,5.22,1.46,1.61,3.09,3.07,4.84,4.36,1.85,1.34,3.76,2.45,5.7,3.28,1.12.48,2.18.84,3.26,1.11,1.4.34,2.59.48,3.76.43.36-.02.74-.05,1.12-.12.2-.03.4-.08.7-.15l.39-.11c.48-.14.96-.28,1.43-.43,1-.32,2.03-.72,3.07-1.18,1.01-.45,1.95-.94,2.8-1.38.9-.47,1.78-.94,2.66-1.42,2.72-1.49,5.58-3.13,8.74-5.01l.15-.06c.35-.15.69-.32.98-.49.32-.18.63-.38.94-.61,1.13-.82,2.13-1.92,2.89-3.17,0-.01.02-.03.02-.04,27.22,21.68,58.26,45.4,71.71,55.63l4.47,3.39c2.24,1.7,4.5,3.41,6.76,5.12l6.79,5.13c4.53,3.41,9.06,6.82,13.54,10.17,4.48,3.36,8.91,6.67,13.25,9.89,2.89,2.15,5.74,4.27,8.54,6.34,5.59,4.14,10.96,8.1,16,11.78l3.72,2.71c1.88,1.37,3.68,2.68,5.45,3.96-.09.04-.19.07-.28.1-.02,0-.04,0-.06,0-.21.03-.42.09-.63.2l-.19.13-.44.16c-.55.2-1.09.4-1.63.61-1.43.57-2.74,1.15-4.01,1.76-1.23.61-2.67,1.36-4.03,2.41-.76.59-1.44,1.29-1.97,2.03-.51.71-.95,1.51-1.31,2.38-.6,1.46-.96,3.11-1.07,4.9-.1,1.52-.01,3.11.25,4.74.24,1.5.63,3.01,1.17,4.51.53,1.5,1.21,2.93,2,4.24.8,1.34,1.75,2.61,2.81,3.76,1.12,1.22,2.32,2.28,3.57,3.15.73.51,1.44.92,2.18,1.27.61.29,1.56.69,2.7.88.28.04.57.07.87.08.16,0,.32,0,.49,0l-.1-1.82.28,1.81.2-.02c.35-.03.7-.05,1.05-.09.75-.08,1.55-.21,2.36-.4,1.35-.3,2.63-.68,3.88-1.05l.32-.09c2.02-.6,4.01-1.23,6.01-1.86l.35-.11c.16-.02.32-.04.48-.07.31-.06.59-.14.85-.22.28-.09.56-.2.85-.32,1.01-.46,1.97-1.15,2.76-1.99.68-.72,1.26-1.57,1.78-2.59.79-1.57,1.29-3.35,1.53-5.46.1-.93.14-1.89.12-2.88,1.26-.4,2.64-.82,4.1-1.28.86.49,1.29.68,1.58.78.54.19,1.05.37,1.55.54.5.17.98.33,1.45.48.36.12.71.23,1.05.34.56.18,1.11.34,1.65.5,1.01.29,2,.55,3.03.79.31.07.62.14.93.21.46.1.93.2,1.41.29.48.09.98.19,1.5.28l.79.14c.54.09,1.1.18,1.68.27l.9.14c3.03.46,6.74.96,11.88,1.64l4.33.58c1.77.24,3.61.45,5.81.68l1.12.11c4.02.39,8.02.65,11.96.77,6.09.19,12.04.04,17.77-.44h.14c1.75-.16,3.52-.35,5.25-.56l.49-.06c1.74-.23,3.46-.48,5.12-.77l1.37-.25c.35-.06.7-.13,1.05-.2.68-.13,1.33-.27,1.96-.4l.29-.06c.43-.09.84-.19,1.26-.29l.64-.15c.58-.14,1.15-.28,1.73-.43l.33-.08c.58-.15,1.15-.31,1.7-.47l.29-.08c.57-.16,1.13-.33,1.69-.5l.22-.07c.57-.18,1.12-.36,1.67-.54l.16-.05c.57-.19,1.13-.39,1.72-.61,4.15-1.53,7.63-3.26,10.38-5.17.34-.24.67-.48,1.02-.75l.2-.16c.26-.2.5-.41.74-.61l.34-.3c.21-.19.41-.38.61-.57.12-.12.24-.24.37-.37.17-.18.34-.36.5-.55.1-.12.2-.24.34-.41l.08-.1c.09-.1.17-.21.25-.3.05-.06.09-.12.13-.18l.08-.12-1.48-1.07h0s0,0,0,0l1.56.94c.1-.14.19-.28.26-.39l.06-.1c.04-.06.08-.15.09-.18.52-.91.86-1.83,1-2.75.7-2.43,1.65-6.6,1.47-8.49-.82-8.43-7.3-15.16-23.12-24.01-10.77-6.02-14.67-12.03-17.8-16.86-1.24-1.91-2.41-3.71-3.85-5.38-.73-.85-4.36-5.13-9.84-11.62l-1.28-1.51c-32-37.85-129.39-153.03-141.54-164.46-14.5-13.64-25.99-25.68-41.77-46.82-7.83-10.5-17.17-18.97-27.76-25.19-9.34-5.49-19.41-9.11-29.92-10.75-4.81-.75-9.84-.77-14.91-.07-4.02.56-8.06,1.56-12.05,3.01-7.1,2.58-13.86,6.46-20.08,11.53-7.07,5.76-13.02,12.7-17.7,20.63-4.94,8.37-8.2,17.45-9.69,26.89-.37,1.81-.68,3.66-.91,5.48-.06.43-.12.87-.17,1.31l-.08.65c-.02.15-.04.31-.06.46-.1.92-.18,1.84-.25,2.77-.01.18-.02.36-.03.54l-.02.37v.12c-.04.58-.07,1.16-.08,1.73-.01.42-.01.84-.01,1.26v.69c0,.28,0,.56,0,.85,0,.6.03,1.21.05,1.81v.17c.01.28.02.55.04.83.03.65.08,1.3.12,1.96l.07.87c.06.69.13,1.38.21,2.07l.09.78c.09.72.18,1.45.29,2.17l.1.67ZM75.92,5.07c21.47,3.36,41.03,15.57,55.07,34.37,15.95,21.38,27.57,33.55,42.23,47.34,11.98,11.27,109.26,126.32,141.22,164.13,6.23,7.37,10.35,12.24,11.15,13.17,1.26,1.46,2.36,3.15,3.52,4.94,3.37,5.2,7.57,11.67,19.22,18.18,13.65,7.64,19.68,13.27,20.9,19.69-.73-1.88-1.84-3.68-3.37-5.43-4.01-4.59-10.78-8.7-17.49-12.45-11.22-6.28-15.27-12.52-18.53-17.54-1.2-1.84-2.33-3.59-3.68-5.15-.79-.92-4.91-5.79-11.14-13.15-31.98-37.83-129.31-152.94-141.38-164.29-14.59-13.72-26.14-25.83-42.01-47.09-7.67-10.27-16.8-18.56-27.15-24.64-9.12-5.36-18.94-8.89-29.19-10.49-1.94-.3-3.9-.47-5.87-.54,0-.52.05-1.04.11-1.56,2.15.03,4.28.19,6.38.52ZM288.05,329.19c-14.02-1.87-17.87-2.38-23.93-4.34,13.63-4.24,31.63-9.81,43.36-13.43.73.94,1.51,1.82,2.34,2.62,1.27,1.23,2.5,2.17,3.8,2.91.58.32,1.48.79,2.61,1.05.28.06.56.11.85.14.16.02.33.02.53.02h.3c.36-.02.74-.03,1.14-.05.43-.03.87-.08,1.26-.15.22-.03.42-.08.6-.11.18-.04.35-.08.59-.13.71-.17,1.4-.36,2.09-.55,1.72-.48,3.43-.98,5.14-1.48l2.52-.73c.15-.02.3-.04.43-.07.63-.14,1.23-.36,1.85-.69,1.02-.56,1.92-1.36,2.67-2.37.59-.79,1.08-1.69,1.5-2.76.63-1.61,1.02-3.4,1.2-5.51.26-3.32-.1-6.85-1.05-10.49-.57-2.13-1.33-4.12-2.25-5.98,2.65,2.41,6.01,4.9,10.47,7.39,16.14,9.03,22.51,15.07,21.94,20.82-.22.75-.41,1.32-.53,1.58-.04.06-.06.12-.1.19h0c-.11.19-.24.38-.38.57-2.51,3.35-10.02,7.96-23.62,10.95-.18.04-.36.08-.54.12-.37.08-.75.16-1.13.23-.48.1-.96.19-1.45.28-.15.03-.3.06-.46.08-2.72.49-5.61.91-8.64,1.23l-15.03-8.25,11.8,8.56c-7.69.64-16.25.69-25.5-.02-.26-.02-.52-.04-.79-.06-.69-.06-1.39-.12-2.08-.19-.66-.06-1.32-.13-1.99-.2-.51-.05-1.03-.11-1.55-.17-1.25-.14-2.52-.29-3.81-.47-1.48-.2-2.86-.38-4.15-.55ZM245.62,337.8c-.15.06-.3.12-.44.15-.29.08-.59.12-.91.12-.62,0-1.28-.17-1.92-.45-1.28-.57-2.46-1.51-3.53-2.56-1.08-1.05-2.04-2.24-2.95-3.48-.45-.62-.88-1.26-1.3-1.91-.42-.65-.81-1.31-1.2-1.98.27.73.58,1.44.91,2.15.33.7.68,1.4,1.06,2.08.76,1.37,1.63,2.68,2.64,3.91.51.61,1.06,1.2,1.66,1.74.21.19.45.37.68.55-.14-.05-.27-.1-.4-.16-.21-.09-.41-.2-.61-.3-.2-.11-.39-.23-.59-.35-.19-.13-.38-.26-.57-.39-.18-.14-.37-.28-.55-.43-.72-.58-1.37-1.25-2-1.93-.64-.68-1.22-1.4-1.81-2.13.46.8.93,1.6,1.45,2.37.52.77,1.07,1.54,1.72,2.25.16.18.33.35.5.53.17.17.36.34.54.5.19.16.38.32.58.47.15.11.3.21.46.32-.34-.11-.68-.23-1.01-.38-.22-.09-.42-.2-.62-.31-.21-.11-.4-.23-.6-.35-.19-.13-.39-.26-.58-.39-.19-.14-.37-.28-.56-.43-.73-.59-1.41-1.25-2.05-1.94-.65-.69-1.25-1.42-1.84-2.16.47.81.94,1.62,1.48,2.4.53.78,1.1,1.55,1.77,2.27.17.18.34.35.51.53.18.17.36.34.55.51.2.16.39.32.59.47.15.11.3.21.45.31-.34-.11-.67-.22-.99-.37-.86-.39-1.67-.9-2.42-1.49-.75-.59-1.44-1.26-2.1-1.96-.66-.69-1.27-1.44-1.87-2.18.48.82.96,1.64,1.51,2.43.55.79,1.14,1.56,1.82,2.28.64.68,1.38,1.31,2.2,1.85-.35-.12-.71-.24-1.04-.4-.88-.4-1.7-.91-2.47-1.51-.77-.59-1.47-1.26-2.14-1.97-.68-.7-1.29-1.45-1.9-2.21.49.83.98,1.66,1.55,2.46.56.8,1.17,1.57,1.87,2.3.66.69,1.42,1.33,2.27,1.88-.36-.13-.72-.25-1.06-.41-.89-.41-1.74-.92-2.52-1.52-.78-.6-1.51-1.27-2.19-1.98l-.51-.54-.49-.56c-.17-.18-.32-.37-.48-.57l-.47-.57.37.63c.12.21.25.42.38.63l.4.62.42.61c.58.8,1.21,1.59,1.92,2.31.69.7,1.47,1.35,2.34,1.9-.37-.13-.73-.26-1.08-.43-.91-.42-1.77-.94-2.57-1.54-.8-.6-1.54-1.28-2.24-1.99l-.52-.54-.49-.56c-.08-.09-.17-.19-.25-.28l-.24-.29-.47-.58.38.64.19.32c.07.11.13.21.2.31l.41.63.44.61c.59.81,1.24,1.6,1.97,2.33.58.58,1.24,1.11,1.93,1.59-.21-.08-.42-.16-.63-.26-.58-.27-1.14-.61-1.68-.98-1.08-.75-2.07-1.64-2.97-2.62-.9-.98-1.7-2.06-2.39-3.19-.69-1.14-1.25-2.35-1.7-3.61-.45-1.26-.8-2.56-1.01-3.87-.21-1.31-.3-2.65-.22-3.96.07-1.16.28-2.31.66-3.38v.16s.02.83.02.83c0,.28.04.55.07.82.03.27.05.54.09.81l.14.8c.05.26.09.53.15.79l.18.78c.06.26.11.52.19.78l.42,1.53-.09-1.58c-.02-.26-.02-.53-.02-.79v-.79c-.02-.26,0-.52,0-.78l.03-.78c.02-.26.05-.51.07-.77.03-.25.04-.51.1-.76l.13-.74.19-.71c.07-.23.16-.45.24-.67.02-.06.04-.11.07-.16l.03-.06-.02.25.02.87c0,.29.03.57.06.85.03.28.05.56.09.84l.13.83c.05.28.08.55.15.82l.18.81c.06.27.11.54.19.81l.43,1.59-.1-1.64c-.02-.27-.02-.55-.02-.82v-.82c-.02-.27,0-.54,0-.81l.03-.81c.02-.27.05-.53.08-.8.03-.26.05-.53.11-.79l.14-.77.2-.74c.03-.12.08-.24.12-.35l.13-.34c.04-.12.1-.22.15-.32l.03-.05-.06.67v.87c-.02.29.01.58.03.86.02.28.04.57.07.85l.12.84c.04.28.07.56.14.83l.17.82c.06.27.11.55.19.81l.43,1.6-.1-1.65c-.02-.27-.01-.55-.02-.82v-.82c-.02-.27.01-.54.02-.82l.04-.81c.02-.27.06-.53.1-.8.03-.26.06-.53.12-.79l.16-.77.22-.73c.03-.12.09-.24.13-.35l.14-.34c.04-.11.09-.2.15-.29l-.07.54-.03.88c-.02.29,0,.58.02.87.02.29.03.57.05.86l.11.85c.04.28.06.56.13.84l.17.83c.06.27.1.55.18.82l.43,1.62-.1-1.66c-.02-.28,0-.55-.01-.83v-.82c0-.27.02-.55.04-.82l.05-.81c.03-.27.07-.54.11-.8.04-.27.07-.53.14-.79l.18-.77.24-.73c.03-.12.09-.24.14-.35l.15-.34c.03-.06.05-.11.08-.17l.03-.06-.06.42c-.02.3-.03.59-.05.89,0,.15-.02.29-.01.44l.02.44c.01.29.02.58.04.87l.1.85.05.42.03.21.04.21.16.84.08.42.04.21.05.2.43,1.63-.1-1.67v-.21s-.01-.21-.01-.21v-.42s0-.83,0-.83v-.21s.02-.21.02-.21l.03-.41.06-.82c.04-.27.09-.54.13-.8l.06-.4c.02-.13.06-.26.09-.39.07-.26.13-.51.2-.77l.26-.73c.04-.12.1-.23.15-.35l.15-.3c-.09.58-.13,1.17-.13,1.74,0,1.06.13,2.1.32,3.11.18,1.01.45,1.99.73,2.96-.06-1.01-.12-2.02-.07-3.01.04-.99.13-1.98.34-2.92.15-.65.37-1.26.63-1.84-.01.09-.04.17-.05.26-.22,1.59-.19,3.18-.02,4.74.09.78.22,1.55.41,2.31.18.76.41,1.51.71,2.23-.12-.77-.24-1.53-.32-2.29-.08-.76-.13-1.53-.15-2.29-.03-1.52.11-3.05.44-4.5.17-.73.37-1.44.66-2.11.28-.67.63-1.31,1.06-1.84.36-.44.78-.81,1.24-1.05.27-.09.54-.19.81-.28.13-.03.26-.05.4-.07.33-.04.66-.04.99-.01.52.05,1.02.19,1.52.37-.16.03-.33.04-.49.09-.36.1-.7.25-1.02.43-.32.18-.62.4-.88.64-.27.24-.5.51-.71.79-.21.28-.39.57-.54.87-.3.6-.53,1.22-.68,1.84-.3,1.25-.37,2.51-.29,3.75.08,1.23.3,2.44.64,3.61-.07-1.21-.05-2.42.07-3.6.13-1.18.36-2.33.78-3.39.41-1.05,1.01-2.01,1.81-2.59.79-.59,1.74-.75,2.69-.54.47.1.94.29,1.4.54.45.25.89.55,1.31.9.73.62,1.4,1.35,2,2.14.21.32.42.63.61.96-.9.35-1.92.7-3.05,1.05-.08-.1-.15-.2-.23-.29-.38-.4-.85-.78-1.48-.96-.31-.09-.67-.1-1.02-.02-.35.08-.68.27-.94.5-.26.23-.46.51-.61.78-.16.28-.28.56-.37.85-.19.57-.28,1.15-.32,1.72-.05.57-.03,1.14,0,1.7.04.56.13,1.11.24,1.66.11.55.26,1.08.43,1.61.17.53.37,1.05.6,1.56.23.51.48,1,.78,1.49.29.48.61.95.98,1.38.36.44.77.86,1.24,1.22.23.18.49.35.76.5.28.14.58.27.91.34.33.07.69.08,1.04,0,.35-.09.67-.27.91-.51.48-.48.67-1.06.77-1.61.05-.27.06-.54.06-.8.78-.25,1.8-.57,3.04-.96.01.13.03.27.04.4,0,.16.02.32.02.48-.02,1.11-.15,2.22-.46,3.24-.31,1.01-.81,1.93-1.52,2.53-.36.29-.76.51-1.22.62-.45.12-.94.13-1.45.05-1.01-.16-2.04-.66-2.97-1.32-.94-.66-1.79-1.47-2.58-2.36-.78-.89-1.5-1.86-2.16-2.88.42,1.14.94,2.25,1.59,3.3.65,1.05,1.43,2.04,2.36,2.91.94.86,2.05,1.62,3.4,1.98.34.09.69.15,1.05.17.36.02.73.01,1.1-.05.31-.05.61-.14.9-.25-.41.5-.9.92-1.46,1.22-.14.07-.28.15-.43.2ZM210.57,288.15c-2.76-2.04-5.6-4.15-8.51-6.31-14.54-10.8-30.74-22.99-47.41-35.66-5.94-4.51-11.7-8.91-17.28-13.19-9.3-7.13-18.1-13.92-26.34-20.33-3.29-2.56-6.5-5.06-9.61-7.5-6.93-5.43-13.38-10.52-19.34-15.28.56-2.22.72-4.6.47-7.3-.04-.46-.1-.91-.17-1.37-.04-.61-.1-1.23-.19-1.85-.16-1.04-.39-2.11-.68-3.18l7.59-4.67c4.22-.67,7.54-.94,10.1-.82.25.25.52.48.81.69.63.48,1.37.88,2.21,1.21l.43.36c.48.39,1.08.61,1.69.61h3.74c.62.01,1.22-.2,1.7-.59l.42-.34c.84-.32,1.58-.72,2.21-1.18.23-.17.44-.34.65-.54.22-.06.45-.12.69-.19,3.16-.89,5.67-2.35,7.44-4.33l18.58-10.91.24-.14c.25-.15.5-.32.74-.53.09-.08.17-.16.26-.26.19-.18.36-.37.52-.59.08-.11.15-.23.24-.37.12-.2.23-.4.33-.62.06-.14.12-.29.16-.39l.13-.34c.03-.1.05-.21.07-.33.03-.1.06-.21.08-.34.02-.11.02-.21.03-.32.03-.26.03-.53.02-.85,0-.13,0-.25-.02-.38-.04-.36-.11-.72-.21-1.08l-.05-.19c-.11-.35-.25-.68-.42-.98l-1.23-3.49c-.43-1.14-1.1-2.18-1.93-3.01l-.19-.19,2.36-1.45c.29.28.59.56.9.83,1.75,1.52,3.61,2.88,5.54,4.02,2.25,1.33,4.36,2.26,6.46,2.87.92.26,2.33.6,3.95.59.36,0,.73-.03,1.1-.08.24-.03.48-.08.75-.14l.47-.12c.52-.15,1.06-.29,1.62-.47.68-.22,1.25-.44,1.72-.64.29-.12.57-.25.82-.37.28-.13.54-.26.81-.4.98-.51,1.92-1.04,2.87-1.58,1.84-1.06,3.66-2.14,5.48-3.23,1.7-1.02,3.39-2.05,5.06-3.11.24-.08.47-.17.68-.28.73-.36,1.44-.85,2.11-1.45,1.14-1.04,2.04-2.37,2.7-3.94.52-1.25.89-2.64,1.1-4.24.32-2.49.25-5.14-.22-8.12-.12-.75-.28-1.53-.47-2.36-.07-.4-.14-.8-.22-1.19-.8-3.78-2.27-7.65-4.37-11.49-.81-1.46-1.71-2.87-2.66-4.23,24.86,27.29,106.4,123.73,135.14,157.73,6.23,7.37,10.35,12.24,11.15,13.17,1.26,1.46,2.36,3.15,3.52,4.94.41.63.83,1.27,1.27,1.94-.33-.2-.66-.4-1-.56-1.11-.53-2.22-.83-3.3-.9-.64-.04-1.27,0-1.9.13-.32.07-.61.14-.94.26-.16.06-.31.13-.49.22-2.61.8-4.94,1.62-7.12,2.5-1.44.59-2.73,1.17-3.94,1.78-.72.37-1.36.73-1.97,1.1-.81.5-1.43.94-1.99,1.42-.4.33-.73.66-1.01.98-.31.35-.6.73-.85,1.13-.46.72-.86,1.53-1.17,2.41-.51,1.45-.79,3.02-.86,4.8-.05,1.23,0,2.49.17,3.82-.49.04-.99.08-1.48.11-1.13.07-2.27.02-3.45-.14.08-.08.16-.17.24-.28.13-.16.25-.33.37-.53.07-.12.14-.24.15-.27l.16-.32c.05-.11.08-.23.13-.38l.13-.51c.05-.28.08-.55.08-.8,0-.12,0-.24-.02-.33-.01-.23-.05-.46-.1-.68-.03-.13-.07-.26-.09-.31-.01-.04-.02-.08-.03-.12l-1.05-3.66c-.27-.94-.77-1.81-1.43-2.51l-21.75-23.04c-1.01-1.03-2.43-1.5-3.82-1.31-.31.04-.61.12-.91.23l-26.91,10.8c-1.33.53-3.33,1.34-3.72,4.02-.05.33-.04.66.04.99l.83,3.58.07.31c.06.25.14.49.24.73.04.12.09.23.14.33.21.4.44.74.75,1.06l8.04,6.72c-.69,3.2.46,6.48,1.49,9.41,1.89,5.38,2.77,8.64-1.24,12.23-.35-.48-.7-.92-1.06-1.34-1.34-1.52-2.71-2.69-4.18-3.59-.88-.54-1.78-.96-2.68-1.26-1.07-.35-2.13-.53-3.16-.53-.59,0-1.15.06-1.69.17-.19.04-.36.09-.54.14-7.16-5.17-15.51-11.28-24.73-18.1ZM75.58,194.28c-.19.15-.39.3-.6.43-.08.05-.17.09-.25.14-.2.1-.4.2-.6.3-.38.16-.77.28-1.17.35-.96.16-1.99.08-3-.16-1.01-.24-1.99-.64-2.95-1.11-.95-.48-1.87-1.05-2.76-1.66-1.78-1.22-3.43-2.66-5-4.18-.78-.76-1.54-1.55-2.27-2.37-.74-.81-1.45-1.64-2.14-2.5.62.91,1.26,1.8,1.93,2.67.68.87,1.38,1.72,2.11,2.54,1.47,1.65,3.07,3.19,4.82,4.57.88.69,1.81,1.32,2.79,1.88.81.46,1.67.84,2.57,1.16-.14-.02-.27-.03-.37-.04-.65-.05-1.29-.13-1.91-.28-.32-.06-.62-.16-.93-.25-.31-.09-.61-.21-.92-.32-.3-.13-.6-.25-.9-.39-.29-.15-.59-.29-.88-.44-1.16-.62-2.26-1.36-3.32-2.13-1.07-.77-2.09-1.62-3.11-2.46.86.98,1.73,1.97,2.67,2.9.94.93,1.91,1.84,3.01,2.66.27.2.56.4.84.6.29.19.59.37.89.55.31.17.62.34.94.5.24.11.48.21.73.31-.51-.06-1.01-.13-1.5-.25-.32-.06-.64-.17-.95-.26-.32-.09-.62-.22-.94-.32-.3-.13-.61-.25-.92-.39-.3-.15-.6-.29-.9-.44-1.18-.62-2.3-1.36-3.39-2.14-1.09-.78-2.13-1.63-3.16-2.49.88,1,1.76,2,2.72,2.93.96.94,1.96,1.85,3.08,2.67.28.2.57.4.86.59.3.19.6.37.9.55.32.16.63.34.96.5.26.11.51.23.78.33-.52-.06-1.04-.14-1.54-.27-1.31-.3-2.57-.79-3.78-1.41-1.21-.62-2.35-1.36-3.46-2.14-1.12-.78-2.16-1.65-3.21-2.52.89,1.01,1.79,2.02,2.78,2.96.98.95,2.01,1.86,3.16,2.68,1.09.78,2.3,1.47,3.63,1.99-.54-.07-1.08-.16-1.6-.29-1.33-.31-2.62-.8-3.85-1.42-1.23-.62-2.4-1.35-3.53-2.15-1.14-.79-2.2-1.67-3.26-2.55.91,1.02,1.82,2.05,2.83,2.99,1,.95,2.06,1.87,3.23,2.68,1.13.79,2.37,1.48,3.72,2.01-.55-.08-1.1-.17-1.64-.3-1.36-.32-2.67-.81-3.92-1.42-1.25-.62-2.45-1.35-3.6-2.15l-.86-.61-.83-.64c-.28-.21-.55-.43-.82-.66l-.81-.67.69.78c.23.26.46.52.71.77l.73.75.76.73c1.03.96,2.12,1.88,3.31,2.69,1.17.8,2.45,1.49,3.82,2.03-.56-.09-1.12-.18-1.67-.32-1.38-.33-2.72-.81-4-1.43-1.28-.61-2.5-1.35-3.67-2.15l-.87-.61-.84-.65c-.14-.11-.28-.22-.42-.33l-.41-.34-.82-.68.71.78.35.39c.12.13.25.25.37.38l.74.76.78.73c1.05.97,2.17,1.88,3.39,2.7,1.07.72,2.25,1.33,3.48,1.84-.44-.06-.88-.15-1.32-.27-.88-.23-1.75-.55-2.61-.92-1.71-.75-3.34-1.74-4.85-2.86-1.52-1.12-2.93-2.4-4.2-3.8-1.27-1.4-2.38-2.93-3.36-4.56-.98-1.62-1.82-3.34-2.48-5.11-.66-1.77-1.15-3.61-1.42-5.46-.26-1.85-.29-3.73.05-5.51.03-.17.08-.33.12-.49,0,.04,0,.09,0,.14.07.8.21,1.57.39,2.32.35,1.51.84,2.95,1.39,4.35.55,1.4,1.18,2.77,1.83,4.12-.44-1.43-.83-2.88-1.16-4.33-.32-1.45-.57-2.91-.67-4.36-.05-.72-.07-1.44-.02-2.14.05-.7.15-1.38.34-2,.1-.29.2-.58.34-.84,0,.21,0,.41.02.62.03.41.08.82.14,1.22.07.4.13.8.22,1.19.33,1.57.83,3.08,1.4,4.54.57,1.46,1.21,2.89,1.89,4.28-.47-1.49-.88-2.98-1.22-4.49-.33-1.51-.59-3.02-.67-4.53-.03-.38-.03-.75-.04-1.12,0-.37.01-.74.05-1.1.06-.73.18-1.43.38-2.08.1-.32.22-.64.37-.93.04-.07.09-.13.13-.2-.02.44-.02.87,0,1.29.01.21.02.42.04.62l.06.61c.06.4.11.81.19,1.21.3,1.59.78,3.12,1.33,4.59.56,1.48,1.2,2.91,1.88,4.32-.47-1.49-.88-3-1.2-4.52-.32-1.52-.55-3.05-.6-4.56-.02-.38-.01-.75-.01-1.13l.03-.56c0-.19.03-.37.05-.55.08-.73.22-1.44.44-2.09.05-.17.12-.32.18-.48.07-.15.13-.31.21-.45.02-.04.05-.07.07-.11-.03.39-.04.78-.03,1.16,0,.21,0,.42.02.63l.05.62c.05.41.09.82.17,1.22.27,1.61.72,3.15,1.26,4.65.54,1.5,1.18,2.94,1.87,4.36-.47-1.5-.88-3.02-1.19-4.55-.31-1.53-.52-3.07-.54-4.59-.01-.38,0-.76.02-1.13l.04-.56c.01-.19.04-.37.06-.55.1-.73.26-1.44.5-2.09.12-.34.26-.66.43-.96-.03.35-.06.69-.06,1.03,0,.21,0,.42,0,.63l.03.63c.04.41.07.83.14,1.23.23,1.63.66,3.2,1.2,4.71.53,1.51,1.17,2.97,1.86,4.4-.48-1.51-.88-3.04-1.18-4.58-.15-.77-.26-1.54-.35-2.32-.07-.77-.13-1.54-.12-2.31,0-.38.02-.76.04-1.14l.06-.56c.02-.19.05-.37.08-.55.12-.73.3-1.44.55-2.1.12-.33.28-.64.44-.95.1-.17.21-.33.32-.49-.24,1.5-.26,3.01-.09,4.47.18,1.56.54,3.06,1.01,4.51l.37,1.08.43,1.06c.07.18.14.35.22.52l.24.51.48,1.03-.31-1.09-.16-.54c-.05-.18-.09-.37-.13-.55l-.25-1.09-.19-1.1c-.23-1.47-.35-2.95-.29-4.4.06-1.45.32-2.87.78-4.19l.08-.24c-.08.83-.11,1.66-.08,2.48.09,2.24.51,4.44,1.14,6.56.32,1.06.69,2.1,1.12,3.12.43,1.02.92,2,1.49,2.95-.43-1.01-.84-2.03-1.19-3.06-.35-1.03-.66-2.08-.91-3.14-.5-2.12-.78-4.28-.77-6.44.01-1.07.09-2.15.28-3.19.19-1.04.5-2.06.96-2.98.31-.62.72-1.19,1.19-1.66.65-.4,1.3-.81,1.95-1.21.03-.01.06-.03.1-.04.47-.17.97-.28,1.47-.34,1-.13,2.03-.07,3.03.13.42.08.83.2,1.24.33-.86.08-1.71.32-2.49.72-.23.11-.44.25-.65.38-.2.15-.41.29-.6.46-.2.16-.37.34-.54.51-.16.19-.33.37-.47.57-.15.19-.28.4-.41.6-.12.21-.24.42-.34.63-.22.43-.38.87-.52,1.31-.26.89-.41,1.79-.47,2.69-.1,1.8.12,3.56.53,5.25.21.85.46,1.68.75,2.49.3.81.63,1.61,1.01,2.38-.23-.83-.45-1.66-.61-2.49-.18-.83-.32-1.67-.41-2.51-.18-1.68-.2-3.36.05-4.98.13-.8.33-1.59.63-2.32.3-.72.68-1.4,1.17-1.95.12-.14.25-.26.38-.39.14-.11.27-.24.42-.34.14-.11.3-.2.44-.29.16-.08.31-.17.48-.23.65-.28,1.36-.41,2.09-.4.73,0,1.47.14,2.21.36.73.22,1.45.53,2.15.9,1.39.75,2.7,1.71,3.9,2.81.39.36.76.75,1.14,1.13l-4.2,2.77c-.29-.26-.59-.51-.93-.73-.32-.22-.67-.41-1.05-.56-.38-.15-.78-.26-1.22-.29-.44-.03-.91.05-1.34.26-.43.2-.8.54-1.08.91-.28.37-.46.79-.59,1.2-.13.41-.21.83-.25,1.24-.09.83-.05,1.63.05,2.42.1.79.28,1.56.49,2.32.22.75.49,1.49.79,2.21.31.72.65,1.42,1.03,2.1.38.68.8,1.34,1.24,1.98.45.63.93,1.25,1.46,1.84.52.58,1.08,1.14,1.7,1.65.61.51,1.27.97,2,1.35.36.19.75.35,1.15.48.41.13.84.22,1.29.23.45.01.93-.06,1.36-.25.43-.2.81-.51,1.07-.88.26-.37.42-.77.52-1.17.1-.4.13-.8.13-1.19,0-.78-.14-1.54-.35-2.26-.01.38,0,.75-.05,1.12-.03.37-.08.73-.16,1.08-.15.7-.42,1.37-.86,1.79-.21.21-.46.35-.72.42-.27.07-.55.07-.85.03-.54-.09-1.09-.35-1.62-.67.41.05.78,0,1.1-.17.79-.42,1.13-1.47,1.05-2.88l6.27-3.86c.34,1.07.64,2.15.84,3.24.28,1.59.39,3.2.23,4.75-.08.77-.25,1.53-.5,2.23-.25.7-.6,1.35-1.05,1.89-.46.53-1.01.97-1.66,1.27-.32.15-.67.25-1.02.34-.36.07-.73.12-1.1.13-1.52.03-3.11-.42-4.59-1.12-1.49-.69-2.9-1.63-4.22-2.67-.66-.53-1.3-1.09-1.92-1.68-.62-.58-1.22-1.2-1.8-1.83.46.73.97,1.42,1.5,2.1.54.68,1.11,1.33,1.71,1.96,1.21,1.25,2.57,2.38,4.11,3.29.77.45,1.58.85,2.45,1.16.86.31,1.78.51,2.74.56.48.02.97,0,1.45-.06.49-.08.97-.19,1.44-.37.94-.35,1.81-.93,2.5-1.66.06-.06.09-.13.15-.19-.21.65-.45,1.28-.77,1.86-.48.88-1.12,1.66-1.89,2.27ZM13,115.19c-.22-.5-.43-1-.64-1.49-.1-.23-.19-.45-.29-.68-3.09-7.46-5.28-14.95-6.47-22.23.03-.49.05-.97.07-1.46.03-1.01.02-2.02-.02-3.02-.03-.85-.09-1.7-.16-2.55.76.76,1.56,1.48,2.41,2.14.22.17.45.34.67.51.23.16.46.32.7.48.47.31.95.6,1.45.87.99.54,2.02.99,3.1,1.27-.89-.68-1.73-1.36-2.53-2.09-.8-.72-1.56-1.48-2.3-2.25-.36-.39-.73-.78-1.08-1.18-.35-.4-.7-.8-1.04-1.21-.34-.41-.67-.82-1-1.24-.16-.21-.32-.42-.48-.63-.16-.21-.32-.43-.45-.62l-.39-.56c-.05-3.49.16-6.88.66-10.16l.06-.41c.43-2.65,1.02-5.26,1.82-7.83,3.07-9.77,8.21-19.26,14.98-27.25l3.64,4.38-2.46-5.74c6.89-7.74,15.34-13.95,24.93-17.44,6.26-2.27,13.01-3.36,20.11-2.99.06.21.1.43.17.63l.17.54.18.54.19.54.2.53c.07.18.13.35.2.53l.24.54c.17.35.34.7.52,1.03.73,1.35,1.56,2.6,2.41,3.83,1.72,2.45,3.57,4.77,5.47,7.06,1.9,2.28,3.85,4.51,5.85,6.7-1.84-2.32-3.63-4.68-5.36-7.08-1.72-2.4-3.4-4.84-4.91-7.35-.75-1.26-1.47-2.54-2.06-3.84-.15-.32-.28-.65-.41-.98l-.17-.49c-.06-.16-.11-.34-.17-.51l-.17-.52-.15-.52-.15-.52-.14-.52s0-.02,0-.03c1.15.1,2.3.24,3.47.42,21.47,3.36,41.03,15.57,55.07,34.37,14.24,19.07,25.02,30.82,37.59,42.92-.94-.63-1.88-1.2-2.83-1.67-1.4-.7-2.71-1.19-4.01-1.49-1.57-.37-3.08-.46-4.47-.27-.46.06-.9.16-1.39.29-.44.13-.83.27-1.18.43-.43.19-.79.38-1.14.6l-.1.07c-3.74,2.06-7.15,4.16-10.43,6.43-1.94,1.35-3.65,2.64-5.22,3.95-.92.77-1.75,1.51-2.52,2.27-1,.99-1.73,1.81-2.38,2.68-.44.59-.8,1.15-1.08,1.68-.31.58-.59,1.19-.82,1.83-.42,1.16-.71,2.41-.86,3.75-.25,2.23-.13,4.57.36,7.15.4,2.15,1.04,4.31,1.95,6.59.12.29.24.59.37.88l-5.07,3.14-17.85-17.97-.14-.13c-1.44-1.34-3.4-1.78-5.18-1.13-.27.1-.53.22-.78.36l-31.02,18.02c-1.56.9-3.69,2.14-3.68,5.58,0,.32.05.62.15.91l1,3.05c.05.36.12.71.22,1.05l.04.14s0,.02,0,.03l.06.16c.12.34.27.66.44.97.22.6.62,1.1,1.15,1.45l11.34,8.62-4.21,8.14-5.03,3.32c-.23-.21-.46-.43-.71-.64-.37-.32-.76-.64-1.07-.87-.36-.32-.73-.63-1.12-.95-2.13-1.67-4.21-2.89-6.36-3.73-1.27-.49-2.53-.83-3.75-1.01-1.44-.21-2.82-.19-4.11.05-.74.14-1.44.34-2.06.6-.34.14-.67.29-.98.45-.38.2-.72.42-.98.61-2.28,1.18-4.41,2.37-6.47,3.6-3.19-2.86-5.61-5.17-7.2-6.89-9.46-10.16-18.15-22.91-24.2-36.55ZM75.04,8.33c21.54,3.37,41.16,15.61,55.23,34.47,15.94,21.36,27.55,33.52,42.21,47.31,11.99,11.28,109.27,126.34,141.24,164.15,6.23,7.37,10.35,12.24,11.15,13.17,1.27,1.47,2.37,3.17,3.54,4.96,3.36,5.18,7.54,11.62,19.13,18.1,11.24,6.29,18.07,11.21,20.25,17.41-.82-1.15-1.83-2.3-3.08-3.48-3.63-3.43-9.21-7.2-17.56-11.86-11.17-6.24-15.2-12.46-18.44-17.45-1.2-1.85-2.34-3.6-3.7-5.18-.79-.92-4.91-5.78-11.13-13.15-31.99-37.83-129.32-152.95-141.4-164.31-14.58-13.71-26.12-25.81-41.98-47.05-7.69-10.3-16.85-18.61-27.22-24.71-9.14-5.37-18.99-8.91-29.28-10.52-1.43-.22-2.86-.37-4.28-.48-.1-.62-.19-1.25-.24-1.87,1.88.06,3.74.22,5.57.5ZM244.06,327.11c-.28.1-.62-.13-.85-.34-1.36-1.2-2.37-4.32-1.98-6.06.2-.86.63-.98.8-1.03,1.3-.37,2.48-.74,3.53-1.13,2.45-.89,4.25-1.82,5.37-2.79,5.41-4.67,4.75-9.75,3.38-14.17.02.04.04.09.06.13.17.31.35.61.54.91.11.38.34.73.67,1.05l.12,2.38c.02.31.19.59.46.74l2.86,1.6c.15.08.32.12.49.11l.62-.03c2.24,1.74,4.61,2.8,6.66,2.91-2.44-1.52-2.77-2.72-2.21-3.14l.46-.02c.17,0,.33-.07.47-.16l.71-.5c2.1-.77,5.52-1.9,6.47-2.26,1.33-.51,1.94-1.34,3.11,3.55,3.18-4.05.25-8.6-2.63-12.06-2.88-3.45-10.55-6.77-15.39-5.02-2.92,1.06-4.88,3.71-4.44,6.96-1.24-3.56-2.21-6.65-.09-9.14,1.9-2.23,6.75-5.12,17.95.54,2.33,1.18,4.49,2.32,6.58,3.43,5.88,3.11,10.91,5.78,15.84,7.02-3.72-.47-8.28-1.69-11.38-3.43-4.79-2.69-9.89-4.88-13.65-6.61-4.89-2.25-7.82-1.63-7.82-1.63,0,0,2.82.65,6.31,1.99,4.15,1.59,9.38,5.52,12.76,8.35,4.77,4.01,4.64,7.56,4.33,8.75l20.45-6.01c.13.42.29.82.43,1.23-4.12,1.24-8.23,2.52-12.33,3.81-.03,0-.06-.01-.08-.02-.53-.06-1.07-.09-1.66.02.14.15.3.28.45.4-.46.15-.93.29-1.39.44-1.42.45-2.83.91-4.25,1.36-.44-.12-.89-.22-1.35-.29-.73-.1-1.47-.16-2.27-.05.44.43.92.75,1.4,1.04-3.12,1-6.24,1.99-9.36,3-2.64.85-5.26,1.72-7.9,2.59l-3.95,1.3-.41.14c.15-.47.28-.96.28-1.52-.55.28-.97.64-1.35,1.03-.34.36-.64.74-.9,1.15l-1.57.53c-5.24,1.79-10.47,3.64-15.63,5.7,5.42-1.23,10.77-2.67,16.1-4.18l.2-.06c-.11.38-.19.77-.2,1.22.55-.28.96-.64,1.34-1.03.37-.39.7-.81.98-1.26.15-.24.28-.48.4-.74.11-.04.21-.09.35-.13.21.4.26.72.28,1.03l.64-.19,3.99-1.17c2.66-.78,5.32-1.56,7.97-2.35,3.51-1.04,7.01-2.11,10.52-3.17-.03-.03-.07-.05-.1-.08-.31-.31-.61-.67-.81-1.2.06-.02.11-.02.17-.03.45.21.92.4,1.39.56.69.22,1.39.4,2.12.51.73.1,1.47.16,2.27.05-.39-.38-.81-.68-1.24-.94.53-.16,1.06-.32,1.59-.48.79-.24,1.59-.49,2.38-.74-.16-.11-.32-.23-.45-.4-.21-.26-.39-.57-.5-1.05.02,0,.03,0,.05-.02.02.01.03.02.05.03.46.26.95.47,1.44.63.5.16,1.01.28,1.53.35.53.06,1.07.09,1.66-.02-.19-.2-.39-.37-.59-.52,3.21-1,6.42-2.01,9.63-3.04.06.14.12.28.19.42.27.56.57,1.1.89,1.64-21.44,6.63-60.75,18.79-62.98,19.6ZM280.66,292.78l-14.24-14.32v-1.04s15.65,15.75,15.65,15.75v.35c-.46-.24-.93-.49-1.41-.74ZM255.31,283.88l.82-.33c-.17.22-.31.44-.42.68l-.4-.35ZM264.71,278.24l-10.17,4.11-.02-1.66,10.17-4.11.02,1.66ZM261.16,282.95c1.36-.16,2.69.24,3.64,1.1.58.52.93,1.16.97,1.69-3.54-1.04-6.31-1.11-8.47-.67.46-1.05,1.94-1.89,3.87-2.12ZM266,282.71c-1.06-.96-2.44-1.5-3.91-1.58l3.28-1.33,10.24,10.3c-1.12-.59-2.28-1.19-3.49-1.8-1.66-.84-3.19-1.49-4.61-2.01.03-.15.07-.29.07-.45.01-1.07-.57-2.24-1.57-3.15ZM283.52,292.21l-17.38-17.49c-.23-.24-.58-.31-.89-.2,0,0-.02,0-.03.01l-11.87,4.8c-.32.13-.54.45-.53.8l.04,3.49h.02c0,.24.08.47.27.63l1.82,1.59c-1.48.68-2.55,1.59-3.27,2.43-.16.19-.31.38-.44.58l-8.43-7.02c-.1-.12-.17-.26-.21-.41,0-.02-.01-.04-.02-.06-.03-.16-.04-.32,0-.49.04-.2.18-.56.59-.72l26.7-10.72c.35-.14.75-.06,1.02.21l23.38,23.9c.09.09.14.21.19.33.02.06.04.12.05.19.01.08.01.17,0,.25,0,.06-.01.12-.03.18-.04.12-.09.24-.18.34-.09.1-.22.21-.41.27l-5.13,1.69c-1.6-.68-3.25-1.48-5-2.37l-.02-1.6c0-.22-.09-.43-.25-.59ZM241.75,277.66c.11-.51.38-.66,1.52-1.12l.08-.03,26.7-10.72c.13-.05.26-.06.4-.06l-.04,1.94c-.36-.02-.72,0-1.08.13-.03.01-.06.02-.08.03l-26.7,10.72c-.19.08-.37.18-.53.29l-.27-1.19ZM329.97,311.44c-.61-.04-1.26-.29-1.87-.65-.62-.36-1.2-.84-1.75-1.36-.55-.52-1.07-1.1-1.57-1.7-1-1.2-1.87-2.51-2.7-3.86-.41-.68-.8-1.37-1.18-2.07-.38-.7-.74-1.41-1.1-2.12.24.76.51,1.52.79,2.27.29.75.6,1.49.93,2.22.33.73.69,1.45,1.08,2.16.39.71.8,1.41,1.26,2.09.45.68.95,1.34,1.5,1.96.28.32.57.62.89.91-.17-.08-.34-.16-.51-.25-.21-.1-.4-.23-.59-.35-.2-.13-.38-.27-.57-.4-.18-.15-.37-.29-.55-.45-.18-.16-.36-.32-.53-.48-.7-.66-1.33-1.41-1.94-2.17-.62-.76-1.19-1.57-1.75-2.38.45.88.9,1.76,1.4,2.62.5.86,1.04,1.7,1.66,2.5.16.2.32.39.48.59.17.19.35.38.52.57.19.18.37.36.57.54.15.12.3.24.45.36-.33-.13-.66-.28-.98-.46-.21-.11-.4-.24-.61-.36-.2-.13-.39-.27-.58-.41-.19-.15-.38-.3-.56-.45-.18-.16-.36-.32-.54-.49-.71-.67-1.36-1.42-1.99-2.19-.63-.77-1.21-1.59-1.78-2.41.45.89.91,1.79,1.43,2.65.52.87,1.07,1.72,1.71,2.52.16.2.33.39.5.59.17.19.35.38.53.57.19.18.38.37.58.54.14.12.29.24.44.36-.33-.14-.65-.27-.96-.45-.84-.46-1.62-1.05-2.35-1.73-.73-.67-1.4-1.42-2.03-2.21-.64-.78-1.23-1.61-1.81-2.44.46.9.93,1.81,1.47,2.68.53.87,1.1,1.73,1.76,2.54.62.76,1.33,1.48,2.14,2.1-.34-.15-.69-.29-1.01-.48-.85-.47-1.65-1.07-2.39-1.74-.74-.68-1.43-1.43-2.08-2.22-.66-.79-1.25-1.62-1.85-2.47.47.92.95,1.83,1.5,2.71.54.88,1.13,1.75,1.81,2.56.64.78,1.38,1.5,2.2,2.13-.35-.15-.7-.31-1.03-.5-.87-.48-1.68-1.08-2.44-1.76-.76-.68-1.46-1.44-2.13-2.24l-.49-.6-.47-.62c-.16-.21-.31-.42-.46-.63l-.45-.64.36.7c.12.23.24.47.37.69l.39.69.41.67c.56.89,1.17,1.76,1.86,2.58.67.79,1.43,1.52,2.27,2.16-.36-.16-.71-.32-1.05-.52-.88-.49-1.72-1.09-2.49-1.78-.78-.68-1.49-1.45-2.17-2.25l-.5-.61-.48-.63c-.08-.11-.16-.21-.24-.32l-.23-.32-.46-.65.37.7.18.35c.06.12.13.23.2.35l.39.69.42.68c.57.9,1.2,1.78,1.91,2.6.32.37.66.72,1.02,1.06-.77-.53-1.5-1.14-2.18-1.8-.94-.91-1.79-1.92-2.56-2.99-.77-1.07-1.45-2.21-2.03-3.39-.58-1.18-1.06-2.42-1.46-3.68-.4-1.26-.7-2.55-.9-3.86-.2-1.3-.29-2.62-.24-3.92.04-1.05.18-2.09.45-3.07l.03.88c0,.08,0,.15,0,.22l.02.22.04.44.04.44c.01.15.03.29.05.44l.14.87c.04.29.09.58.15.86l.18.85c.06.28.11.57.19.85l.43,1.68-.09-1.73c-.02-.29-.02-.57-.02-.86v-.86c-.02-.29,0-.57,0-.86l.03-.85c0-.14.02-.28.03-.42l.04-.42.04-.42.02-.21c0-.07.02-.14.03-.21l.14-.82c.05-.27.13-.53.19-.79.09-.31.19-.61.31-.89v.18c-.02.15-.04.31-.03.46l.02.9c0,.15.02.3.03.45l.04.44.04.44.02.22.03.22.13.87.07.43c.02.14.06.29.08.43l.17.85c.06.28.11.57.19.85l.42,1.67-.09-1.72c-.02-.29-.02-.57-.02-.86v-.86c0-.14,0-.28,0-.43l.02-.43.04-.85v-.21s.03-.21.03-.21l.05-.42.05-.42c.02-.14.03-.28.06-.41l.15-.81c.02-.14.06-.26.09-.39l.1-.39c.06-.26.16-.5.25-.74.01-.04.04-.07.05-.12v.13s-.03.23-.03.23c0,.08,0,.15,0,.23v.9c.01.3.05.59.07.89.03.29.04.59.09.88l.12.87.06.43c.02.14.06.28.08.43l.17.85c.06.28.11.57.19.84l.42,1.67-.08-1.71c-.02-.28-.02-.57-.02-.85v-.85c0-.14,0-.28,0-.42l.02-.42.05-.84c0-.28.06-.56.09-.83.04-.28.06-.55.11-.82l.16-.8c.01-.07.02-.13.04-.2l.06-.19.11-.38c.04-.13.07-.26.11-.38l.14-.36s.04-.08.05-.13c-.04.49-.04.98-.05,1.46,0,.3.04.59.05.88.02.29.03.59.08.87l.12.86.06.43.08.43.17.85c.06.28.11.56.18.84l.42,1.66-.08-1.71c-.02-.28-.01-.57-.01-.85v-.85s0-.42,0-.42l.03-.42.05-.84c0-.28.06-.55.09-.83.04-.27.07-.55.11-.82.15-.84.37-1.65.68-2.38-.04.47-.06.93-.05,1.39.01.3.03.59.05.88.02.29.03.58.07.87l.11.86.06.43.08.42.16.85c.05.28.11.56.18.84l.42,1.66-.08-1.7c-.02-.28-.01-.57-.01-.85v-.84s.01-.42.01-.42l.03-.42.06-.83c.01-.28.06-.55.1-.82.04-.27.07-.55.12-.81.16-.82.38-1.63.69-2.34-.04.45-.06.9-.07,1.34l.04.88c.02.29.02.58.07.87l.11.86.05.43.08.42.16.84c.05.28.1.56.18.84l.41,1.65-.07-1.7c-.02-.28-.01-.56,0-.84v-.84s.02-.42.02-.42l.03-.42.06-.83c.01-.28.06-.55.1-.82l.12-.81c.23-1.06.53-2.09,1.02-2.94l.18-.31s.05-.07.08-.11c-.19.77-.31,1.55-.37,2.32-.13,1.63-.04,3.25.13,4.85.1.8.17,1.6.31,2.39.14.79.34,1.57.64,2.32-.08-.8-.19-1.58-.29-2.37-.1-.78-.2-1.57-.21-2.36-.03-1.58.12-3.16.42-4.69.15-.76.34-1.51.58-2.23.24-.72.54-1.41.93-2.02.38-.6.87-1.12,1.41-1.39.14-.07.27-.12.41-.16.07-.02.15-.03.23-.05.08-.01.16-.03.24-.03.32-.04.65-.03.97.02.55.08,1.09.3,1.6.58-.23.03-.45.07-.67.13-.38.11-.75.28-1.08.5-.33.21-.61.47-.86.75-.5.55-.84,1.17-1.11,1.8-.25.63-.43,1.27-.55,1.92-.23,1.29-.26,2.57-.18,3.83.09,1.26.31,2.5.62,3.71-.04-1.25-.02-2.48.08-3.7.12-1.22.31-2.42.68-3.54.18-.56.4-1.1.67-1.59.27-.49.59-.93.97-1.26.75-.68,1.64-.83,2.55-.52.46.15.91.4,1.34.73.43.32.84.69,1.22,1.1.61.65,1.14,1.39,1.63,2.17.54.97,1.04,1.97,1.48,2.99.6,1.4,1.1,2.85,1.51,4.32.42,1.47.74,2.97.95,4.48.1.74.18,1.48.22,2.22,0,.04,0,.08,0,.12.01,1.17-.09,2.33-.33,3.42-.12.55-.29,1.07-.5,1.56-.21.48-.48.92-.8,1.27-.33.33-.69.6-1.12.72-.42.13-.9.12-1.39,0-.49-.12-1-.34-1.48-.64-.48-.29-.95-.65-1.38-1.04-.88-.79-1.67-1.72-2.39-2.7-.72-.99-1.37-2.04-1.98-3.13.36,1.19.81,2.37,1.38,3.5.57,1.13,1.26,2.21,2.11,3.2.43.49.9.96,1.44,1.37.53.42,1.14.78,1.83,1.03.35.12.72.21,1.1.25.38.04.79.02,1.18-.06.24-.04.47-.12.7-.21-.36.55-.8,1.02-1.31,1.34-.26.16-.55.31-.84.39-.27.09-.57.12-.87.1ZM241.47,317.72c-.3.09-.58.22-.83.39-.35-.16-.7-.22-1-.13-.03.01-.06.04-.09.05.07-.21.17-.4.28-.55.22-.28.51-.45.92-.44.41.01.88.2,1.31.46.02.01.03.02.05.03-.21.06-.42.13-.64.19ZM243.63,329.73c.3-.09.53-.32.71-.62.14-.03.28-.03.41-.08.18-.06.61-.21,1.25-.41-.07.18-.13.36-.21.53-.21.45-.51.86-.85,1.05-.34.2-.68.19-1.03.04-.25-.1-.49-.28-.72-.48.15.01.3.02.44-.02ZM269.62,304.11c-.01.21-.02.41-.04.62-.02.21-.04.41-.06.62-.02.21-.05.41-.09.62-.07-.2-.13-.4-.19-.6-.06-.2-.11-.4-.16-.6-.05-.2-.09-.4-.14-.6-.04-.2-.08-.4-.12-.61-.02-.1.01-.21.09-.29l.06-.07c.22-.23.41-.46.53-.71.12-.24.17-.48.16-.72l-.05-.5c-.02-.17-.03-.35-.04-.52-.03-.35-.04-.69-.06-1.04-.01-.35-.02-.7-.02-1.04v-.26s0-.1,0-.1v-.1c-.02-.13-.06-.27-.11-.4-.11-.27-.29-.54-.5-.79-.22-.25-.47-.5-.73-.74.69.17,1.39.5,1.88,1.17.12.17.22.36.29.56l.05.16.03.16.04.26c.05.34.1.69.14,1.03.04.35.07.69.1,1.04.02.17.03.35.04.52l.02.26v.13s.01.07.01.07v.09c.01.47-.15.92-.39,1.27-.2.3-.45.53-.72.72,0,.13,0,.25-.01.38ZM267.26,305.27l-2.39,1.68-5.31.27-2.57-1.44-.16-3.05,2.41-1.69,5.31-.27,2.55,1.43.16,3.07ZM266.1,295.85c-1.24-.41-2.79-.62-4.49-.53-1.38.07-2.69.32-3.81.73-.2.07-.37.16-.55.24l-.08-1.68c.51-.36,1.95-1.26,4.03-1.39,2.29-.15,4.16.64,4.82.96l.08,1.67ZM261.66,296.32c3.6-.18,6.17,1.01,6.23,2.19l.06,1.19c-1.28-.96-3.56-1.51-6.19-1.38-1.38.07-2.69.32-3.81.73-.37.13-.71.28-1.03.45-.47.25-.87.52-1.19.81l-.06-1.17c-.03-.59.54-1.22,1.56-1.75,1.16-.6,2.73-.98,4.42-1.06ZM67.84,179.58c-.62-.17-1.95-.69-3.05-2.23-1.13-1.58-1.73-4.2-1.96-5.68l17.49-11.53h0s12.46-8.18,12.46-8.18l-10.72,4.8,7.1-13.72,10.9-6.71,20.22-2.43-9.19,7.27,13.71-7.81h.03s9.13-5.65,9.13-5.65c.21.39.41.78.63,1.16l-6.5,3.96-12.45,7.59c-1.87.94-4.08,2.05-5.22,2.6-2.14,1.04-5.52,1.76-5.52,1.76l7.91-7.52-11.94,1.43-9.87,6.08-4.23,8.18,9.81-3.3s.22.83-3.61,3.94c-2.12,1.72-4.05,3.07-5.36,3.93l-2.28,1.39-5.34,3.26-2.67,1.63c-.45.27-.89.55-1.34.81-.45.26-.91.5-1.34.81-1.69,1.24-3.37,2.49-5.04,3.76l-2.5,1.91c-.83.65-1.66,1.29-2.48,1.95.96-.43,1.91-.87,2.87-1.31l2.84-1.35c1.89-.9,3.78-1.82,5.65-2.76.47-.24.9-.53,1.33-.82.44-.28.89-.55,1.33-.82l2.67-1.63,3.05-1.86c-.02.17-.06.34-.06.51,0,.4.04.8.19,1.23.33-.32.54-.66.72-1.02.17-.35.3-.72.39-1.09.09-.37.14-.76.14-1.15,0-.12-.01-.25-.02-.37.06-.06.12-.12.2-.18.22.25.33.48.39.71.02.05.02.11.03.16l.32-.2,11.44-6.98c.02.71.11,1.44.41,2.22.65-.59,1.06-1.24,1.41-1.9.34-.66.58-1.35.75-2.06.13-.54.19-1.1.22-1.67.05-.04.08-.09.13-.13.35.46.5.89.6,1.32,0,.02,0,.05,0,.07l6.41-3.91,21.38-13.04,6.53-3.98c.77,1.16,1.57,2.3,2.46,3.38.31.38.66.73.98,1.1l-35.14,21.64s-.01,0-.02,0h0s-36.42,22.43-36.42,22.43ZM177.59,134.55c-.46.25-.97.41-1.5.49-1.06.15-2.21-.05-3.31-.42-1.1-.37-2.17-.92-3.19-1.54-1.02-.62-2-1.34-2.94-2.09-1.9-1.51-3.65-3.22-5.31-5-.83-.89-1.64-1.81-2.42-2.75-.79-.94-1.55-1.9-2.3-2.87.67,1.03,1.36,2.05,2.08,3.04.72.99,1.48,1.97,2.26,2.92.78.96,1.59,1.88,2.44,2.78.85.9,1.73,1.77,2.66,2.59.93.83,1.91,1.6,2.95,2.31,1.01.68,2.08,1.29,3.24,1.75-.25-.04-.48-.07-.64-.08-.7-.08-1.39-.19-2.07-.39-.34-.08-.68-.21-1.01-.32-.34-.12-.67-.27-1-.4-.33-.16-.66-.31-.98-.48-.32-.18-.65-.35-.96-.54-1.28-.75-2.49-1.64-3.68-2.57-1.19-.93-2.33-1.93-3.47-2.94.98,1.16,1.96,2.32,3.02,3.43,1.06,1.11,2.15,2.19,3.37,3.16.3.24.62.48.93.71.32.23.65.45.98.67.34.2.68.42,1.04.6.26.13.53.26.8.39-.55-.08-1.09-.18-1.62-.34-.35-.09-.69-.21-1.04-.33-.34-.12-.68-.27-1.02-.41-.33-.16-.67-.31-1-.48-.33-.18-.66-.35-.98-.54-1.3-.75-2.54-1.64-3.75-2.58-1.22-.93-2.37-1.95-3.52-2.98,1,1.18,2,2.35,3.08,3.46,1.08,1.11,2.21,2.2,3.45,3.18.31.24.64.47.95.71.33.23.66.45,1,.67.35.2.69.42,1.05.6.28.14.56.28.85.41-.56-.09-1.12-.2-1.67-.36-1.42-.39-2.8-1-4.12-1.76-1.33-.75-2.59-1.64-3.82-2.59-1.24-.94-2.41-1.97-3.58-3.01,1.01,1.19,2.03,2.38,3.14,3.5,1.1,1.12,2.26,2.21,3.53,3.19,1.21.93,2.53,1.76,3.97,2.41-.57-.1-1.15-.22-1.71-.38-1.44-.41-2.85-1.01-4.2-1.77-1.35-.75-2.65-1.64-3.9-2.59-1.26-.94-2.45-1.99-3.64-3.05,1.03,1.21,2.07,2.41,3.2,3.54,1.13,1.13,2.32,2.22,3.62,3.2,1.25.95,2.63,1.78,4.1,2.44-.59-.11-1.19-.23-1.77-.41-1.47-.42-2.91-1.02-4.28-1.78-1.38-.75-2.7-1.64-3.98-2.6l-.95-.73-.93-.77c-.31-.25-.61-.52-.91-.78l-.9-.8.79.92c.26.31.53.61.8.91l.82.89.85.86c1.15,1.14,2.37,2.23,3.7,3.21,1.29.96,2.7,1.79,4.21,2.47-.61-.12-1.21-.25-1.81-.43-1.5-.43-2.96-1.03-4.36-1.79-1.4-.75-2.75-1.64-4.05-2.61l-.97-.74-.94-.77c-.16-.13-.32-.26-.47-.39l-.46-.4-.92-.81.8.93.4.46c.14.15.28.3.42.45l.84.9.87.87c1.18,1.15,2.43,2.24,3.78,3.22.91.66,1.88,1.23,2.88,1.76-1.71-.56-3.39-1.38-4.97-2.34-1.73-1.05-3.37-2.27-4.9-3.61-1.53-1.34-2.95-2.81-4.24-4.39-.64-.79-1.25-1.61-1.84-2.45-.58-.84-1.14-1.7-1.66-2.57-2.09-3.51-3.7-7.33-4.51-11.28-.4-1.97-.57-3.98-.38-5.93.03-.29.09-.58.13-.87.02.18.03.37.06.56.14.92.33,1.82.57,2.69.47,1.76,1.1,3.44,1.78,5.09.69,1.65,1.44,3.26,2.23,4.85-.58-1.68-1.13-3.37-1.59-5.07-.46-1.7-.86-3.42-1.09-5.14-.12-.86-.19-1.72-.21-2.56-.02-.85.03-1.68.17-2.47.03-.2.08-.39.13-.58.02-.09.05-.19.08-.28.03-.09.05-.18.09-.27.12-.36.28-.69.47-1,.02-.03.05-.06.06-.09-.05.91,0,1.8.1,2.67.12.92.29,1.83.51,2.71.43,1.77,1.04,3.47,1.7,5.13.66,1.66,1.4,3.29,2.19,4.89-.57-1.69-1.1-3.38-1.54-5.1-.44-1.71-.81-3.44-1-5.17-.11-.86-.15-1.72-.16-2.57,0-.85.07-1.68.23-2.47.07-.4.19-.77.31-1.14.13-.36.29-.7.48-1.01,0-.02.02-.03.03-.04-.06.89-.04,1.76.05,2.61.1.93.25,1.84.46,2.73.4,1.78.97,3.5,1.61,5.18.64,1.68,1.37,3.31,2.14,4.92-.56-1.69-1.07-3.4-1.49-5.12-.41-1.72-.75-3.46-.91-5.19-.09-.87-.12-1.73-.1-2.58.02-.85.1-1.69.28-2.48.04-.2.09-.39.15-.58.05-.19.12-.38.18-.56.14-.36.3-.71.49-1.02-.07.87-.07,1.72,0,2.56.08.93.21,1.85.4,2.75.36,1.8.91,3.53,1.52,5.22.62,1.69,1.33,3.34,2.09,4.96-.55-1.7-1.04-3.42-1.43-5.15-.39-1.73-.7-3.48-.83-5.22-.07-.87-.08-1.74-.05-2.59.04-.85.14-1.69.33-2.48.19-.76.45-1.47.81-2.09-.08.83-.09,1.65-.04,2.45.06.94.17,1.86.34,2.76.33,1.81.84,3.56,1.44,5.27.6,1.71,1.29,3.37,2.04,5-.54-1.71-1.01-3.44-1.38-5.18-.37-1.74-.65-3.5-.74-5.24-.05-.87-.05-1.74,0-2.6.06-.85.18-1.69.38-2.49.19-.73.46-1.41.8-2.03-.18,1.75-.06,3.47.2,5.13.29,1.82.78,3.59,1.35,5.31.58,1.72,1.25,3.4,1.99,5.04-.52-1.72-.98-3.46-1.33-5.21-.35-1.75-.6-3.52-.66-5.27-.06-1.75.05-3.5.49-5.1.2-.77.5-1.49.87-2.14,0,.03-.01.05-.01.08-.09.63-.14,1.26-.16,1.89-.04,1.26.02,2.51.19,3.74.16,1.23.39,2.45.68,3.65.29,1.2.63,2.39,1.02,3.56.39,1.17.8,2.33,1.27,3.47.47,1.14,1.02,2.24,1.65,3.3-.47-1.13-.94-2.26-1.39-3.4-.44-1.14-.86-2.29-1.19-3.47-.65-2.35-1.08-4.77-1.24-7.18-.07-1.21-.09-2.42,0-3.61.09-1.19.28-2.37.65-3.48.36-1.1.92-2.13,1.72-2.84.2-.18.42-.33.64-.46.22-.13.49-.25.74-.35.51-.2,1.05-.33,1.61-.39,1.11-.12,2.25.03,3.35.35.63.18,1.24.42,1.85.69-.54-.02-1.1.04-1.65.15-.27.08-.55.14-.81.25-.13.05-.27.1-.39.16l-.38.19c-.49.28-.95.63-1.34,1.02-.39.4-.71.85-.98,1.32-.53.94-.84,1.94-1.02,2.94-.17,1-.22,2-.2,2.99.06,1.98.42,3.9.94,5.76.27.93.57,1.84.91,2.74.35.9.72,1.78,1.14,2.64-.28-.91-.55-1.83-.78-2.75-.23-.92-.43-1.85-.59-2.78-.31-1.86-.49-3.74-.38-5.59.05-.92.17-1.83.39-2.7.23-.86.54-1.69,1-2.38.23-.35.49-.66.78-.93.3-.26.62-.49.97-.65l.27-.12c.09-.04.18-.06.27-.09.18-.07.38-.09.57-.14.39-.05.78-.09,1.19-.05.41.02.82.11,1.23.2.2.06.41.11.61.19.2.08.41.14.61.23.8.33,1.59.76,2.34,1.25,1.5.98,2.89,2.19,4.17,3.5.64.66,1.25,1.35,1.85,2.05.59.71,1.15,1.44,1.69,2.2,1.08,1.5,2.07,3.07,2.97,4.7.9,1.63,1.7,3.3,2.38,5.02.69,1.72,1.26,3.48,1.68,5.27.21.89.38,1.79.5,2.7.11.9.19,1.81.19,2.7,0,.89-.07,1.78-.24,2.63-.17.85-.44,1.65-.85,2.35-.42.68-.96,1.26-1.65,1.62-.68.37-1.49.52-2.33.51-.84-.03-1.71-.22-2.56-.52-.85-.3-1.68-.69-2.48-1.16-1.6-.92-3.09-2.09-4.5-3.35-.7-.63-1.37-1.3-2.03-1.99-.66-.69-1.29-1.41-1.91-2.13.5.81,1.05,1.6,1.62,2.38.57.77,1.18,1.52,1.82,2.24,1.28,1.44,2.71,2.78,4.33,3.9.81.56,1.68,1.06,2.6,1.47.92.41,1.93.7,2.99.81.53.05,1.08.04,1.63-.04.55-.07,1.09-.25,1.61-.48,1.04-.47,1.9-1.28,2.52-2.2,0,0,0-.02.01-.02-.14.78-.31,1.55-.59,2.28-.4,1.06-.97,2.04-1.75,2.81-.39.38-.83.72-1.3.97ZM70.97,132.48c.03-.86.31-1.05,1.62-1.81l.1-.06,30.92-17.97s.06-.02.09-.03l.18,1.64c-.34,0-.68.04-1.01.16-.17.06-.33.14-.48.23l-30.92,17.97c-.13.08-.24.18-.35.27l-.13-.41ZM93.57,128.67l-4.52,2.41-.19-1.49,4.51-2.63.19,1.71ZM89.58,133.56l4.68-2.5,1.98,4.76-4.71,2.9-1.95-5.16ZM95.15,124s-.07-.04-.1-.06c-.04-.02-.07-.05-.11-.07,0,0-.02,0-.02,0-.13-.06-.27-.1-.42-.11-.03,0-.06,0-.09,0-.15,0-.29.01-.43.06h0s0,0,0,0c-.06.02-.12.05-.17.08,0,0,0,0,0,0,0,0,0,0-.01,0l-6.83,3.98c-.42.25-.66.72-.6,1.2l.5,4.05c.01.1.04.19.07.28h0s2.49,6.61,2.49,6.61l-2.09,1.29-.16.3-2.5,4.83-12.06-9.16s0,0,0,0c-.07-.08-.13-.17-.19-.26-.08-.13-.15-.26-.2-.41,0-.02-.02-.05-.03-.07-.06-.18-.09-.37-.1-.56,0-.14,0-.28,0-.42.03-.26.15-.72.53-.95l30.92-17.97c.33-.19.74-.1,1.09.24l15.02,14.63-12.96,1.56-11.55-9.08ZM138.45,150.59c0,.08,0,.16,0,.25,0,.09-.02.18-.04.26,0,0,0,.01,0,.02-.03.09-.07.2-.13.3-.02.03-.04.06-.06.09-.08.11-.17.21-.31.28l-.08.04-3.68,2.16c.12-.19.18-.38.18-.58.68-.53,1.08-1.17,1.06-1.78l.05-.02-.08-.3s0,0,0,0c0,0,0,0,0,0l-.61-2.3c-.1-.36-.35-.67-.73-.87-.75-.41-1.91-.42-3.12-.02-.08.02-.15.05-.22.08-1.74.63-2.82,1.86-2.54,2.91l.61,2.3s0,0,0,0c0,0,0,0,0,0l.09.35.08-.02c.13.22.3.41.56.55.33.18.74.26,1.2.29.09.14.2.26.35.34.33.18.81.22,1.31.13l-10.35,6.08c.55-2.14.27-3.89.21-4.19l2.56-1.34h0s.07-.03.1-.05c.45-.29.66-.83.52-1.35l-1.11-4.05c-.06-.22-.19-.43-.36-.58l-1.06-.96,8.81-5.42,6.3,6.14c.1.1.19.21.26.33.02.04.04.08.06.13.04.08.08.16.11.24.02.06.03.12.05.19.02.07.03.14.04.22,0,.06,0,.12,0,.18ZM106.68,159.74c.64-.06,1.28-.07,1.94-.02.65.05,1.3.17,1.93.42-.52-.43-1.13-.77-1.77-1.04-.54-.23-1.11-.4-1.68-.55.31-.11.62-.2.94-.25,1.03-.18,2.15-.07,3.22.34-.68-.62-1.52-1.11-2.46-1.42l1.33-.82c1.38.74,2.28,1.9,2.27,3.21h0c0,.14-.01.27-.04.42,0,.02,0,.04,0,.06l-.2,2.37c-.24-.26-.51-.5-.8-.73-1.37-1.03-3.18-1.61-5.1-1.62-.8,0-1.59.09-2.33.28.86-.34,1.79-.57,2.76-.67ZM113.57,165.95s0,0,0,0l.2-2.44c1.16-.88,1.94-2.04,2.1-3.39.25-2.04-.96-4.01-3.01-5.39l2.46-1.51.19.29c.31.49.61.98.9,1.48.28.5.55,1.02.78,1.55.23.53.43,1.08.54,1.66.1-.59.11-1.2.08-1.8-.03-.61-.1-1.21-.19-1.81-.09-.6-.21-1.2-.33-1.79l-.15-.69,2.05-1.26c-.27,1.96.08,4.03.59,6.55.02.08.39,1.99-.47,4.08-.91,2.2-2.85,3.83-5.75,4.84.01-.12.02-.23.02-.35ZM121.72,154.42c-.02-.14-.04-.28-.06-.41l.33.27-.26.14ZM99.07,163.22l-.16,1.95c-.02.15-.03.29-.04.44v.12s0,0,0,0c0,.02,0,.04,0,.06,0,.2.01.4.04.6-1.43-.04-3.16.01-5.35.22l5.53-3.4ZM100.56,165.81c0-1.02.57-1.99,1.58-2.74,1.09-.8,2.54-1.24,4.1-1.23,1.56,0,3.01.46,4.09,1.27,1,.76,1.56,1.74,1.55,2.76h0c0,.84-.4,1.63-1.09,2.31v-1.77s0-.07,0-.1c0-.25-.11-.5-.3-.66l-1.87-1.54c-.15-.12-.34-.19-.54-.19h-3.74c-.1-.01-.2,0-.29.04-.09.03-.17.08-.25.14l-1.8,1.47s-.08.06-.12.1c-.16.16-.26.38-.26.61v1.84c-.68-.68-1.06-1.47-1.05-2.3ZM107.85,170.58h-3.49s-1.65-1.37-1.65-1.37v-2.74s1.54-1.26,1.54-1.26l-.33,1.89c-.15.11-.31.21-.44.35-.11.1-.21.22-.3.34-.09.13-.18.25-.25.41.17-.02.32-.07.47-.12.14-.05.28-.12.41-.19.24-.13.46-.29.67-.47.14-.02.27-.04.41-.07.09-.02.18-.05.27-.09.09-.03.18-.07.27-.12-.09-.05-.18-.09-.27-.12-.09-.03-.18-.06-.27-.09-.05-.01-.09-.01-.14-.02l-.35-1.79h3.44s.14.12.14.12l-.28,1.61c-.23.01-.47.02-.7.05-.18.02-.36.05-.54.09-.18.04-.36.08-.54.14.18.06.36.1.55.14.18.04.36.07.55.09.33.04.66.06.99.07.18.14.36.26.56.36.12.06.24.11.36.15.13.04.26.08.41.09-.06-.14-.13-.25-.21-.36-.08-.11-.16-.21-.25-.3-.1-.11-.22-.19-.33-.28l-.33-1.67,1.28,1.06v2.76s-1.64,1.34-1.64,1.34ZM129.62,153.17c-.12-.45.64-1.38,2.16-1.87.94-.31,1.89-.32,2.4-.04.15.08.24.18.28.3.05.21-.08.51-.38.83l-.05-.2c-.06-.23-.21-.41-.44-.54-.42-.23-1.08-.23-1.76,0-.04.01-.08.03-.12.04-.87.32-1.62.97-1.43,1.67l.07.27c-.17-.03-.32-.08-.44-.15-.15-.08-.24-.18-.28-.3ZM132.34,153.44c.56-.18.95-.1,1.04-.03-.03.12-.32.46-.92.65-.56.18-.96.1-1.04.02.02-.1.31-.45.93-.65ZM63.21,168.5c-.9-.45-1.71-.56-2.33-.23-.14.07-.25.17-.36.28.05-.42.14-.81.31-1.14.13-.25.31-.46.54-.61.22-.16.5-.26.81-.29.31-.04.64-.01.98.05.34.07.68.17,1.02.3.3.12.6.27.9.42l-1.86,1.22ZM67.74,9.57c-5.56-.21-11.1.46-16.54,2.02-1.23.35-2.45.75-3.66,1.19-5.55,2.01-10.86,4.94-15.87,8.72.57-.46,1.14-.93,1.73-1.37,10.5-7.87,22.55-12.18,34.04-12.33,0,.05,0,.1.01.15.07.55.18,1.08.28,1.62ZM67.33,6.08c-4.65.06-9.38.77-14.14,2.15-1.28.37-2.55.78-3.81,1.24-5.93,2.15-11.63,5.27-16.99,9.29-1.98,1.48-3.87,3.06-5.68,4.73,1.7-1.68,3.47-3.3,5.34-4.82,10.8-8.8,23.27-13.72,35.29-14.11-.03.51-.03,1.02-.01,1.52Z"/>
      <path class="cls-1" d="M251.84,256.86c-1.37.08-2.75.19-4.12.33-.69.08-1.37.15-2.06.25-.34.06-.68.1-1.02.17-.17.03-.34.07-.51.11-.08.02-.17.04-.25.07l-.24.09.25-.04c.08-.01.17-.01.26-.02.17-.01.34-.01.51-.02.34-.01.69,0,1.03,0,.69.01,1.37.02,2.06.04l4.12.08c2.74.04,5.49.06,8.23.04,2.74-.02,5.49-.07,8.24-.17,2.75-.11,5.49-.24,8.24-.51-2.75-.3-5.49-.45-8.24-.56-2.75-.1-5.5-.14-8.25-.12-2.75.02-5.5.1-8.25.26Z"/>
      <path class="cls-1" d="M352.06,314.55c-1.13-.05-2.26-.1-3.4-.13-1.13-.03-2.27-.04-3.41,0,1.1.28,2.21.52,3.33.75,1.11.23,2.22.43,3.34.63,1.11.19,2.23.42,3.35.5,1.13.07,2.26.14,3.45-.37-1.05-.76-2.17-.94-3.28-1.13-1.12-.17-2.25-.19-3.38-.25Z"/>
      <path class="cls-1" d="M351.88,311.89c1.65.08,3.31.15,4.96.2,1.66.05,3.31.08,4.97.08-1.63-.3-3.27-.58-4.91-.82-1.64-.25-3.28-.48-4.92-.7-1.64-.22-3.28-.47-4.93-.57-1.65-.09-3.3-.19-5.01.3,1.59.79,3.23.99,4.87,1.2,1.64.2,3.3.24,4.95.33Z"/>
      <path class="cls-1" d="M297.61,321.4c-.74.58-1.45,1.19-2.13,1.84-.68.65-1.33,1.33-1.92,2.1.89-.39,1.7-.86,2.5-1.37.79-.51,1.55-1.06,2.29-1.64.74-.58,1.45-1.19,2.13-1.84.68-.65,1.33-1.33,1.92-2.11-.89.38-1.7.86-2.5,1.37-.79.51-1.55,1.06-2.29,1.64Z"/>
      <path class="cls-1" d="M298.67,318.52c.92-.84,1.82-1.71,2.65-2.68-1.13.58-2.19,1.25-3.23,1.94-1.03.7-2.04,1.44-3.02,2.21s-1.93,1.57-2.86,2.41c-.92.84-1.82,1.71-2.65,2.68,1.13-.58,2.19-1.25,3.23-1.95,1.03-.7,2.04-1.44,3.02-2.21.98-.77,1.93-1.57,2.86-2.41Z"/>
      <path class="cls-1" d="M293.05,319.45c.45-.36.88-.75,1.28-1.17.4-.43.77-.89,1.07-1.44-.61.16-1.14.42-1.65.7-.51.29-.99.61-1.44.97-.45.36-.88.75-1.28,1.17-.4.43-.77.89-1.07,1.44.61-.16,1.14-.42,1.65-.71.51-.29.99-.61,1.44-.97Z"/>
      <path class="cls-1" d="M293.01,267.65c-1.07-.43-2.16-.82-3.26-1.16-1.1-.34-2.22-.65-3.39-.84.98.66,2,1.2,3.04,1.71,1.04.51,2.09.97,3.16,1.4,1.07.43,2.16.81,3.26,1.16,1.1.34,2.22.65,3.38.84-.98-.66-2-1.2-3.04-1.71-1.04-.51-2.09-.97-3.16-1.4Z"/>
      <path class="cls-1" d="M294.79,266.57c2.01.8,4.04,1.56,6.08,2.27,2.04.72,4.1,1.4,6.2,1.97-1.92-1.03-3.88-1.95-5.86-2.83-1.98-.89-3.97-1.72-5.98-2.52-2.01-.8-4.04-1.56-6.08-2.28-2.04-.72-4.1-1.4-6.2-1.97,1.92,1.03,3.88,1.95,5.86,2.83,1.98.89,3.97,1.72,5.98,2.52Z"/>
      <path class="cls-1" d="M294.52,262.63c.91.34,1.83.65,2.77.91.94.26,1.9.48,2.89.59-.82-.57-1.69-1.04-2.56-1.47-.88-.43-1.77-.81-2.68-1.15-.91-.34-1.83-.65-2.77-.91-.94-.26-1.9-.48-2.89-.59.82.58,1.69,1.04,2.56,1.47.88.43,1.77.81,2.68,1.15Z"/>
      <path class="cls-1" d="M238.74,290.14c-.45-.22-.92-.41-1.47-.5.25.49.57.89.91,1.26.34.36.72.69,1.11.98.4.29.82.55,1.26.77.45.22.92.41,1.47.5-.25-.49-.57-.89-.91-1.25-.34-.36-.72-.69-1.11-.98-.4-.29-.82-.55-1.26-.78Z"/>
      <path class="cls-1" d="M236.94,292.3c-.46-.34-.95-.66-1.47-.93-.52-.27-1.06-.51-1.67-.65.32.54.71.99,1.12,1.41.41.41.85.79,1.32,1.13.46.34.95.65,1.47.93.52.27,1.06.51,1.67.66-.32-.54-.71-.99-1.12-1.41-.41-.41-.85-.79-1.32-1.13Z"/>
      <path class="cls-1" d="M233.87,293.69c-.53-.4-1.09-.76-1.68-1.08-.59-.32-1.2-.61-1.88-.81.38.6.84,1.09,1.32,1.56.48.46.99.89,1.52,1.29.53.39,1.09.76,1.68,1.08.59.32,1.2.61,1.88.81-.39-.59-.84-1.09-1.32-1.56-.48-.46-.99-.89-1.52-1.29Z"/>
      <path class="cls-1" d="M232.54,296.51c-.55-.52-1.13-.99-1.73-1.44-.6-.45-1.23-.86-1.88-1.23-.66-.37-1.33-.72-2.08-.96.45.65.98,1.19,1.53,1.71.55.52,1.13.99,1.73,1.44.6.44,1.23.86,1.88,1.23.66.37,1.33.72,2.08.96-.45-.65-.98-1.19-1.53-1.71Z"/>
      <path class="cls-1" d="M227.75,296.46c-.67-.5-1.37-.96-2.09-1.39-.73-.42-1.47-.81-2.29-1.11.52.7,1.12,1.29,1.73,1.86.62.57,1.27,1.1,1.94,1.59.67.5,1.37.96,2.09,1.38.73.42,1.47.82,2.29,1.11-.52-.69-1.12-1.29-1.73-1.86-.62-.57-1.27-1.1-1.94-1.59Z"/>
      <path class="cls-1" d="M213.14,275.77c-.66-1.1-1.35-2.18-2.09-3.23-.74-1.05-1.51-2.09-2.38-3.06.45,1.23,1,2.39,1.58,3.54.58,1.14,1.21,2.27,1.87,3.37.66,1.1,1.35,2.18,2.09,3.23.74,1.05,1.51,2.09,2.38,3.06-.45-1.23-1-2.39-1.58-3.54-.58-1.14-1.21-2.27-1.87-3.37Z"/>
      <path class="cls-1" d="M165.07,160.42c.34-1.77.64-3.55.9-5.34.25-1.79.47-3.59.56-5.41-.59,1.73-1.05,3.48-1.48,5.23-.43,1.76-.81,3.52-1.15,5.3-.34,1.77-.64,3.55-.9,5.34-.25,1.79-.47,3.59-.57,5.41.58-1.73,1.05-3.48,1.48-5.23.43-1.76.81-3.52,1.15-5.3Z"/>
      <path class="cls-1" d="M109.9,191.02c-.58,1.5-1.12,3.02-1.63,4.55-.5,1.53-.96,3.08-1.31,4.67.81-1.41,1.51-2.87,2.18-4.33.66-1.47,1.28-2.95,1.87-4.45.58-1.5,1.13-3.02,1.63-4.55.5-1.53.96-3.08,1.31-4.67-.81,1.41-1.51,2.86-2.18,4.33-.66,1.47-1.28,2.95-1.86,4.46Z"/>
      <path class="cls-1" d="M166.73,171.87c.7-2.31,1.28-4.65,1.82-6.99.55-2.34,1.04-4.7,1.49-7.06.45-2.36.87-4.73,1.24-7.11.37-2.38.7-4.76.91-7.17-.7,2.31-1.28,4.65-1.82,6.99-.55,2.34-1.04,4.7-1.49,7.06-.45,2.36-.87,4.73-1.23,7.11-.37,2.38-.7,4.76-.91,7.17Z"/>
      <path class="cls-1" d="M171.51,165.47c-.46,2.87-.89,5.75-1.19,8.66.79-2.81,1.47-5.64,2.1-8.48.64-2.84,1.23-5.69,1.78-8.54.55-2.86,1.06-5.72,1.52-8.59.46-2.87.89-5.75,1.19-8.66-.79,2.81-1.47,5.64-2.11,8.48-.64,2.84-1.23,5.69-1.78,8.54-.55,2.86-1.06,5.72-1.52,8.59Z"/>
      <path class="cls-1" d="M177.28,154.54c-.29,1.5-.54,3.01-.74,4.53-.2,1.52-.36,3.05-.41,4.6.53-1.46.95-2.93,1.33-4.42.38-1.49.7-2.98.99-4.48.29-1.5.54-3.01.74-4.53.2-1.52.36-3.05.41-4.6-.53,1.46-.95,2.93-1.33,4.42-.38,1.49-.7,2.98-.99,4.48Z"/>
      <path class="cls-1" d="M45.05,90.5l.42,1.5c.15.5.29,1,.44,1.5.07.25.15.5.24.76l.06.19.05.16c.03.1.05.21.07.32.15.87-.03,1.86-.22,2.87-.2,1.01-.4,2.06-.48,3.14-.07,1.07-.04,2.16.12,3.23.04.27.09.53.14.8l.08.39.09.38.36,1.51c.49,2.01.96,4.03,1.48,6.04,1.01,4.02,2.05,8.03,3.21,12.02-.68-4.09-1.48-8.16-2.31-12.22-.41-2.03-.86-4.05-1.28-6.08l-.33-1.52-.08-.38-.08-.37c-.05-.24-.09-.49-.12-.74-.14-.98-.17-1.98-.09-2.97.07-1,.24-1.99.43-3.01.09-.51.19-1.04.24-1.58.05-.55.07-1.13-.06-1.71-.03-.15-.07-.29-.11-.43l-.07-.21-.06-.18c-.09-.24-.17-.47-.25-.72-.16-.49-.32-.98-.48-1.47l-.93-2.96c-1.24-3.95-2.48-7.91-3.83-11.83.87,4.06,1.87,8.08,2.94,12.09l.4,1.5Z"/>
      <path class="cls-1" d="M51.02,98.33l.09.44.08.43c.02.14.04.28.06.42l.05.44c.06.6.11,1.2.16,1.81.21,2.44.51,4.9,1,7.31.48,2.41,1.1,4.8,1.92,7.12-.35-2.43-.71-4.85-1.01-7.26-.3-2.42-.53-4.83-.73-7.26-.05-.61-.11-1.22-.17-1.84l-.06-.47c-.03-.16-.05-.32-.08-.48l-.1-.46-.11-.45c-.3-1.2-.63-2.38-.98-3.55-.69-2.35-1.44-4.68-2.32-6.98.39,2.43.89,4.83,1.41,7.21l.78,3.57Z"/>
      <path class="cls-1" d="M50.77,138.71c.3.68.7,1.25,1.13,1.79.43.53.91,1.03,1.41,1.48s1.04.88,1.62,1.25c.58.37,1.19.72,1.89.95-.3-.68-.71-1.25-1.13-1.79-.43-.53-.91-1.03-1.41-1.48-.5-.46-1.04-.88-1.62-1.25-.58-.37-1.19-.72-1.89-.95Z"/>
      <path class="cls-1" d="M56.54,139.34c.41.37.85.7,1.33.99.48.29.99.54,1.61.69-.21-.59-.51-1.07-.85-1.53-.34-.45-.71-.85-1.12-1.22-.41-.37-.85-.7-1.33-.99-.48-.29-.99-.54-1.61-.69.21.59.51,1.08.85,1.53.34.45.71.85,1.12,1.22Z"/>
      <path class="cls-1" d="M59.16,135.49c.41.37.85.7,1.33.99.48.29.99.54,1.61.69-.21-.59-.51-1.07-.85-1.53-.34-.45-.71-.85-1.12-1.22-.41-.37-.85-.7-1.33-.99-.48-.29-1-.54-1.61-.69.21.59.51,1.08.85,1.53.34.45.71.85,1.12,1.22Z"/>
      <path class="cls-1" d="M62.36,131.99c.28.28.6.52.95.72.36.2.74.37,1.22.45-.08-.48-.27-.86-.47-1.21-.21-.35-.46-.66-.74-.93-.28-.28-.6-.52-.95-.72-.36-.2-.74-.37-1.22-.45.08.48.26.86.47,1.21.21.35.46.66.75.93Z"/>
      <path class="cls-1" d="M95.34,83.4c1.02.57,2.08,1.07,3.19,1.45.56.19,1.13.36,1.71.47.58.11,1.19.18,1.78.1-.55-.22-1.06-.47-1.56-.73-.5-.26-1-.54-1.49-.81l-2.97-1.67c-1-.55-2-1.09-3.03-1.61-1.03-.51-2.07-1.01-3.18-1.42.79.88,1.69,1.63,2.62,2.33.93.69,1.91,1.33,2.93,1.89Z"/>
      <path class="cls-1" d="M98.18,79.69c1.24.6,2.48,1.2,3.71,1.81.61.31,1.23.62,1.83.95.6.33,1.19.68,1.77,1.1-.09-.15-.19-.3-.29-.45-.11-.14-.22-.29-.34-.42-.23-.27-.49-.53-.75-.77-.52-.49-1.09-.92-1.67-1.33-1.17-.81-2.4-1.5-3.66-2.12-1.27-.61-2.57-1.15-3.89-1.61-1.33-.45-2.68-.84-4.08-1.07,1.2.76,2.43,1.42,3.66,2.06,1.23.64,2.48,1.25,3.72,1.85Z"/>
      <path class="cls-1" d="M99.93,75.62c1.49.76,2.98,1.51,4.44,2.31.73.4,1.46.8,2.17,1.23.71.43,1.41.89,2.08,1.42-.11-.18-.23-.36-.36-.53-.13-.17-.26-.34-.41-.5-.28-.33-.59-.63-.9-.92-.63-.59-1.31-1.11-2.01-1.61-1.4-.99-2.88-1.84-4.39-2.61-1.51-.77-3.07-1.45-4.65-2.05-1.59-.6-3.2-1.13-4.87-1.49,1.46.89,2.94,1.68,4.43,2.47,1.49.78,2.98,1.54,4.47,2.3Z"/>
      <path class="cls-1" d="M102.95,72.49c1.19.7,2.42,1.33,3.72,1.84.65.25,1.31.48,1.99.64.34.08.69.15,1.04.19.17.02.35.03.53.05.18,0,.35,0,.53,0-.65-.25-1.26-.54-1.85-.86-.6-.31-1.18-.64-1.77-.98-1.17-.67-2.32-1.36-3.49-2.04-1.17-.68-2.34-1.37-3.53-2.02-1.19-.66-2.4-1.3-3.67-1.86.95,1.03,2,1.92,3.09,2.76,1.09.83,2.23,1.61,3.42,2.31Z"/>
      <path class="cls-1" d="M106.51,69.16c.63.38,1.31.69,2.03.93.18.06.36.11.55.15.19.04.38.08.57.11.19.02.39.03.58.04.2,0,.4-.03.58-.06-.17-.11-.33-.2-.48-.3-.15-.11-.3-.2-.45-.3-.15-.1-.3-.21-.44-.3-.15-.1-.29-.2-.44-.3-.59-.4-1.19-.77-1.8-1.13-.61-.36-1.24-.7-1.9-1.01-.66-.31-1.33-.59-2.09-.78.42.65.95,1.18,1.5,1.68.56.48,1.16.91,1.79,1.29Z"/>
      <path class="cls-1" d="M70.22,41.29c.3.63.64,1.22,1,1.81.73,1.16,1.55,2.26,2.42,3.31.87,1.05,1.79,2.06,2.75,3.02.97.96,1.98,1.88,3.09,2.7-.75-1.16-1.56-2.24-2.39-3.31-.83-1.07-1.68-2.12-2.53-3.15l-2.58-3.1c-.43-.52-.85-1.04-1.26-1.57-.41-.53-.81-1.06-1.14-1.67.04.34.13.68.25,1.01.11.33.25.65.4.96Z"/>
      <path class="cls-1" d="M116.57,106.93c-.8-.18-1.61-.31-2.44-.39-.82-.07-1.66-.11-2.52,0,.74.46,1.51.78,2.29,1.06.78.28,1.57.5,2.37.68.8.18,1.61.31,2.44.39.82.07,1.66.11,2.52.01-.74-.46-1.51-.77-2.29-1.06-.78-.28-1.57-.5-2.37-.68Z"/>
      <path class="cls-1" d="M113.97,103.01c.46.4.96.65,1.46.87.5.21,1.02.38,1.55.49.53.12,1.06.19,1.61.21.55.01,1.11-.01,1.69-.17-.46-.39-.96-.65-1.46-.87-.5-.21-1.02-.38-1.55-.49-.53-.12-1.06-.19-1.61-.21-.55-.01-1.11.01-1.69.17Z"/>
      <path class="cls-1" d="M116.73,100.58c.32.18.66.3,1,.37.35.08.7.11,1.07.09.37-.03.74-.09,1.15-.29-.28-.35-.6-.57-.92-.75-.32-.18-.66-.3-1-.37-.34-.08-.7-.11-1.07-.09-.37.03-.74.09-1.15.29.28.35.6.57.92.75Z"/>
      <path class="cls-1" d="M202.1,195.03c1.84,1.08,3.71,2.12,5.64,3.06-1.66-1.36-3.39-2.61-5.14-3.84-.22-.15-.45-.29-.66-.45l-1.58.16c.59.35,1.16.73,1.75,1.07Z"/>
      <path class="cls-1" d="M155.75,224.62c-.81-2.78-1.65-5.55-2.48-8.32l-2.5-8.31c-.84-2.75-1.67-5.49-2.56-8.23-.45.06-.9.12-1.36.17.02.06.04.12.06.19.91,2.74,1.82,5.49,2.72,8.23l5.42,16.49,2.73,8.24c.93,2.74,1.84,5.49,2.77,8.23-.78-2.79-1.59-5.57-2.38-8.35l-2.44-8.33Z"/>
      <path class="cls-1" d="M121.47,201.46c1.05-.08,2.09-.21,3.12-.36,2.07-.31,4.13-.71,6.18-1.07,1.03-.18,2.05-.37,3.08-.49.13-.02.25-.03.38-.04.13-.01.25-.02.38-.03.25-.02.5-.02.71,0l.14.03c.08.02.15.04.23.05.14.02.28.04.42.05.14.01.27.02.41.03.13,0,.27.01.4.01,1.06.03,2.11-.02,3.16-.07,1.05-.06,2.1-.13,3.14-.22,2.09-.18,4.18-.4,6.26-.72,1.04-.16,2.08-.33,3.13-.58.26-.06.52-.13.79-.21l.2-.07.1-.03.09-.02.34-.1c.47-.12.96-.21,1.47-.28,2.02-.26,4.11-.31,6.19-.35l3.14-.05c1.05-.02,2.1-.05,3.17-.14,1.09-.11,2.12-.33,3.15-.54,1.03-.22,2.05-.45,3.07-.68,2.04-.46,4.07-.91,6.1-1.25l.76-.11.76-.08c.25-.02.5-.03.74-.05.12,0,.24,0,.35,0h.37c.28.02.56.02.84.02l.79-.03c.53-.01,1.05-.05,1.58-.08,1.05-.05,2.09-.13,3.14-.2l3.13-.25c2.14-.18,4.27-.39,6.4-.58.43-.02.87-.05,1.3-.07-.02-.01-.04-.03-.06-.04,5.78-.54,11.55-1.12,17.32-1.79-6.1.35-12.2.74-18.3,1.13-.75-.5-1.49-1.02-2.25-1.51-1.8-1.15-3.61-2.27-5.46-3.34-1.84-1.08-3.71-2.12-5.64-3.06,1.66,1.36,3.39,2.62,5.14,3.84,1.74,1.23,3.52,2.41,5.32,3.56.34.21.68.41,1.02.62-1.62.1-3.23.21-4.85.31-2.08.12-4.17.24-6.25.33-.52.02-1.04.05-1.56.05l-.77.02-.73-.02c-.11,0-.27-.01-.41-.02-.14,0-.29-.02-.43-.02-.27.01-.55.02-.82.04l-.8.08-.79.11c-2.1.32-4.14.78-6.19,1.23-1.02.22-2.04.45-3.06.66-1.02.21-2.03.41-3.03.51-1.01.1-2.05.12-3.09.15l-3.13.07c-2.1.06-4.2.1-6.32.4-.53.08-1.07.18-1.6.33l-.41.13-.1.03-.09.03-.17.06c-.23.07-.47.14-.72.2-.99.24-2.01.43-3.03.6-.58.1-1.16.17-1.74.25l-.07-.22c-.11-.33-.21-.68-.31-1.02-.11-.34-.21-.69-.3-1.03-.4-1.38-.78-2.77-1.17-4.17-.78-2.78-1.52-5.58-2.31-8.36-.8-2.78-1.63-5.55-2.59-8.3.2,1.44.46,2.87.73,4.29.13.71.28,1.42.42,2.13l.45,2.12c.62,2.83,1.32,5.64,2.03,8.45.18.7.36,1.4.55,2.1l.28,1.05.3,1.05c.1.35.2.7.31,1.05.11.35.21.69.33,1.04-1.02.14-2.05.26-3.08.37-2.07.22-4.15.41-6.21.44-.13,0-.26,0-.38,0-.13,0-.25,0-.38-.01-.13,0-.24-.02-.36-.03l-.15-.03-.12-.02-.13-.02c-.31-.03-.59-.01-.86.02-.14.01-.27.03-.4.04-.13.02-.27.03-.4.06-1.05.16-2.07.38-3.1.6-2.04.45-4.08.91-6.13,1.32-1.02.2-2.05.38-3.08.51-.52.06-1.04.12-1.56.12-.52,0-1.05,0-1.54-.2.48.22,1.02.26,1.54.29.53.02,1.05,0,1.57-.03Z"/>
      <path class="cls-1" d="M168.26,177.45l3.03-1.15c2.01-.78,4.02-1.58,6.02-2.38l5.99-2.45c1.99-.84,3.99-1.65,5.97-2.5l2.98-1.25c.99-.43,1.99-.83,2.98-1.25.5-.21.99-.41,1.49-.62l1.5-.61,1.51-.58c.5-.19,1.02-.34,1.53-.52l-.79.17c-.26.06-.53.11-.79.18l-1.56.44c-.52.15-1.03.32-1.55.48-.52.16-1.03.33-1.54.5-2.05.7-4.08,1.42-6.1,2.18-1.01.38-2.02.75-3.03,1.15l-3.02,1.17-6.01,2.39-5.99,2.44-5.98,2.46c-3.99,1.64-7.97,3.28-11.99,4.87,4.18-1.12,8.27-2.53,12.33-4.01,1.02-.36,2.03-.74,3.04-1.13Z"/>
      <path class="cls-1" d="M199.81,169.64c-.38.1-.77.2-1.14.3-1.52.43-3.03.88-4.53,1.37-3,.95-5.97,1.99-8.94,3.05-2.96,1.06-5.91,2.15-8.85,3.25l-8.84,3.32c3.09-.63,6.13-1.51,9.14-2.44,3.01-.93,5.99-1.95,8.95-3.01,2.96-1.06,5.91-2.16,8.84-3.29l4.4-1.69c1.47-.56,2.93-1.14,4.44-1.59-.39.06-.78.11-1.17.19l-1.16.25c-.39.09-.77.19-1.15.29Z"/>
      <path class="cls-1" d="M216.84,243.92c.29,2.06.55,4.12.82,6.18.26,2.06.55,4.12.91,6.17.35,2.05.74,4.09,1.22,6.12.24,1.01.5,2.02.79,3.03.29,1,.61,2.01.99,3,.04-1.06.01-2.11-.03-3.15-.05-1.05-.13-2.09-.22-3.12-.2-2.07-.48-4.13-.81-6.19-.32-2.05-.71-4.1-1.13-6.13-.41-2.04-.83-4.08-1.22-6.12l-.13-.67c-.44,0-.87,0-1.31,0l.12.88Z"/>
      <path class="cls-1" d="M245.35,239.38c.87,1.04,1.76,2.07,2.68,3.07.93.99,1.88,1.98,2.91,2.89-.65-1.22-1.39-2.36-2.15-3.49-.61-.91-1.27-1.8-1.92-2.68-.51.07-1.02.14-1.53.22,0,0,0,0,0,0Z"/>
      <path class="cls-1" d="M212.08,242.94c-.55-.02-1.09-.04-1.64-.06.15.68.3,1.37.46,2.05.39,1.64.82,3.27,1.31,4.88.25.81.51,1.61.8,2.41.29.8.6,1.59.96,2.37-.02-.86-.1-1.71-.19-2.55-.09-.84-.21-1.68-.34-2.51-.27-1.67-.61-3.32-.98-4.96-.12-.54-.26-1.08-.39-1.62Z"/>
      <path class="cls-1" d="M213.41,242.1c2.28.06,4.56.07,6.86-.03.57-.02,1.15-.06,1.72-.09l.86-.07c.29-.02.58-.05.87-.08l.87-.1.87-.13c.29-.04.58-.11.87-.16l.44-.09.44-.11.44-.11.39-.1c.26-.06.51-.13.78-.18l.82-.15.41-.08.42-.07c.55-.09,1.1-.19,1.66-.27l1.67-.25c2.24-.33,4.49-.62,6.73-.94,4.5-.62,9-1.24,13.49-2.02-2.85,0-5.7.09-8.54.24-.85-1.11-1.72-2.2-2.61-3.28,1.05-.2,2.09-.46,3.15-.62.72-.12,1.43-.22,2.15-.31.36-.05.71-.09,1.06-.12.17-.01.35-.03.51-.03.09,0,.15,0,.22,0,.02,0,.02,0,.03,0-.01,0,.05.01.08.02l.12.03c.25.04.44.03.64.03.19,0,.38-.01.57-.02.37-.03.74-.06,1.11-.1.73-.07,1.46-.16,2.18-.26,2.9-.38,5.78-.84,8.66-1.32-2.91.26-5.81.5-8.72.67-.73.04-1.45.08-2.18.1-.36.01-.72.01-1.08.01-.18,0-.35,0-.53-.02-.17,0-.35-.03-.45-.05,0,0-.01,0-.02,0,0,0,0,0-.05-.01-.08-.02-.17-.05-.24-.06-.11-.01-.23-.03-.32-.03-.2-.01-.39-.01-.58,0-.38,0-.75.02-1.12.04-.74.04-1.47.1-2.2.16-1.43.12-2.87.14-4.28.35-.08-.1-.16-.19-.24-.29l-2.62-3.12-2.64-3.1c-1.76-2.07-3.55-4.11-5.36-6.14,1.56,2.23,3.14,4.44,4.75,6.62l2.42,3.28,2.26,3.02c-.28.06-.56.1-.84.16-.72.14-1.43.29-2.15.45-1.43.31-2.85.65-4.27,1.03-.71.19-1.41.39-2.12.6-.7.21-1.4.44-2.09.7,2.91-.34,5.81-.62,8.7-.95.72-.07,1.45-.16,2.17-.24.59-.07,1.17-.13,1.76-.2.8,1.05,1.61,2.09,2.43,3.12-1.13.07-2.26.14-3.39.23-2.27.17-4.54.38-6.81.64-1.13.13-2.27.28-3.41.45l-.43.06-.43.08-.86.16c-.29.05-.59.13-.88.2l-.43.1-.39.1c-1.04.26-2.13.45-3.23.58-.27.04-.55.07-.83.1l-.83.09c-.56.04-1.12.09-1.68.13-.88.06-1.76.11-2.64.15l-1.73-9-1.18-6.13-1.2-6.12.83,6.18.86,6.18,1.25,8.95c-.99.04-1.97.08-2.96.12-.63.02-1.27.04-1.9.06-.09-.35-.18-.7-.28-1.04-.44-1.63-.88-3.25-1.31-4.88l-2.55-9.78-1.27-4.89-1.3-4.88,1,4.95,1.02,4.95,2.04,9.9c.34,1.65.66,3.3.99,4.96.05.26.1.51.16.77-3.4.11-6.81.23-10.23.44,4.53.49,9.07.78,13.63.91Z"/>
      <path class="cls-1" d="M188.88,233.09c-.12-.36-.25-.72-.37-1.08-.27.78-.54,1.56-.81,2.34,1.04,3.04,2.13,6.06,3.3,9.06,1.27,3.25,2.59,6.47,4.07,9.64-.89-3.38-1.9-6.72-2.94-10.04-1.05-3.32-2.13-6.62-3.25-9.92Z"/>
      <path class="cls-1" d="M183.47,242.68c1.23-2.84,2.31-5.72,3.35-8.62,1.03-2.9,2.01-5.82,2.94-8.75.93-2.93,1.81-5.88,2.63-8.85.81-2.97,1.58-5.95,2.21-8.98-1.23,2.84-2.32,5.72-3.36,8.62-1.03,2.9-2.01,5.82-2.94,8.75-.37,1.16-.72,2.33-1.07,3.49-.59-1.7-1.17-3.41-1.76-5.11l-1.71-4.92c-.29-.82-.56-1.65-.82-2.47-.14-.41-.25-.83-.38-1.25l-.17-.63c-.05-.21-.09-.42-.14-.64-.01.88.13,1.75.27,2.61.07.43.15.86.24,1.29.08.43.17.86.27,1.29.38,1.71.82,3.4,1.28,5.08.67,2.42,1.42,4.81,2.19,7.2-.28.97-.56,1.94-.83,2.91-.81,2.97-1.58,5.95-2.21,8.98Z"/>
      <path class="cls-1" d="M325.8,300c.5,1,1.08,1.98,1.88,2.83.2.21.41.41.65.59.24.18.49.35.79.47.29.12.64.19.98.14.35-.04.67-.22.89-.45.23-.23.37-.5.48-.77.11-.27.19-.55.23-.82.1-.55.1-1.11.07-1.65-.05.27-.09.54-.16.8-.06.26-.13.52-.22.77-.09.25-.19.49-.32.7-.13.22-.28.41-.46.54-.35.28-.76.25-1.16.03-.39-.22-.74-.56-1.05-.95.32.18.63.25.91.17.67-.19,1.03-1.17,1.08-2.57.31-.1.67-.21,1.14-.36h0c.15-.05.28-.14.38-.25.33-.21.64-.67.71-1.69.02-.24.01-.51,0-.78.41-.36.37-1.44.08-2.44-.17-.57-.4-1.09-.67-1.46-.29-.41-.54-.54-.74-.56-.57-.98-1.27-1.62-1.95-1.55-.13-.01-.27,0-.4.04-.08.02-.55.16-1.1.32-.77-1.1-1.58-1.7-2.23-1.51-.14.04-.25.13-.36.23.08-.3.17-.59.32-.84.12-.19.26-.35.43-.44.17-.1.37-.13.59-.1.22.03.45.12.67.24.22.12.43.28.64.44.2.17.4.35.58.55.19.19.37.4.55.61-.25-.49-.54-.96-.9-1.39-.18-.22-.38-.42-.61-.59-.23-.18-.49-.34-.8-.42-.31-.09-.68-.09-1,.05-.32.13-.59.36-.78.62-.39.51-.57,1.09-.71,1.65-.13.57-.2,1.13-.22,1.7-.02.57,0,1.13.04,1.69.09,1.12.3,2.22.59,3.3.3,1.07.68,2.13,1.17,3.14ZM328.25,294.09c.07.49.18.99.32,1.48.16.53.35,1.06.57,1.53-.35.11-1,.31-2.12.63-.2-.41-.39-.89-.55-1.44-.17-.58-.27-1.11-.33-1.59l2.11-.61ZM328.83,299.42c-.49-.01-.95-.34-1.37-.92.98-.28,1.68-.49,2.09-.63.26.44.55.8.85,1.06-.74.24-1.4.44-1.57.48ZM330.82,294.85c.17.57.4,1.09.67,1.46.26.36.48.5.67.54-.4.12-.96.28-1.01.28-.68,0-1.22-.63-1.57-1.85-.35-1.2-.3-2.33.13-2.49.27-.11.94-.31,1.25-.41-.46.33-.43,1.43-.13,2.46ZM328.16,293.23l-2.07.61c0-.8.15-1.32.35-1.39h.02c.34-.15,1.18-.4,1.83-.6-.1.4-.14.87-.12,1.39Z"/>
      <path class="cls-1" d="M251.52,280.54c-.04-.24-.18-.45-.41-.6-.52-.36-1.5-.45-2.56-.24-.28.06-.56.14-.83.23-1,.36-1.78.98-1.67,1.69l.3,1.87h.06c.07.12.16.24.3.34.25.17.6.28,1.02.32.04.07.11.15.2.21.3.21.83.26,1.41.15.64-.13,1.3-.48,1.38-.96.57-.31.98-.71,1.04-1.17h.05s-.29-1.85-.29-1.85ZM251.1,282.26h0c.02.14-.15.34-.46.55l-.02-.13c-.02-.11-.07-.26-.25-.39-.29-.2-.82-.25-1.42-.13-.16.03-.32.08-.47.13-.55.2-.99.54-.92.98l.03.17c-.2-.04-.37-.1-.48-.16-.07-.05-.11-.1-.12-.15-.04-.25.62-.88,1.96-1.15.98-.2,1.74-.07,2.03.13.07.05.11.1.12.15ZM248.37,283.84c.09-.1.37-.28.81-.37.44-.09.72-.04.84.01-.09.1-.37.28-.81.37-.44.09-.72.04-.84-.01Z"/>
      <path class="cls-1" d="M272.18,272.47c-.04-.24-.18-.45-.4-.6-.52-.36-1.5-.45-2.56-.24-.28.06-.56.14-.83.23-1,.36-1.78.98-1.67,1.69l.3,1.87h.06c.07.12.16.24.3.34.25.17.6.28,1.02.32.04.07.11.15.2.21.3.21.83.26,1.41.15.64-.13,1.3-.48,1.38-.96.58-.31.98-.71,1.04-1.17h.05s-.29-1.85-.29-1.85ZM271.76,274.19h0c.02.12-.15.33-.46.55l-.02-.13c-.02-.11-.08-.26-.25-.39-.29-.2-.82-.25-1.42-.13-.16.03-.32.08-.47.13-.55.2-.99.54-.92.98l.03.17c-.2-.04-.38-.1-.48-.16-.07-.05-.11-.1-.12-.15-.05-.29.71-.9,1.96-1.15.98-.2,1.74-.07,2.04.13.07.05.11.1.12.15ZM269.03,275.77c.09-.1.37-.28.81-.37.44-.09.72-.04.84.01-.09.1-.37.28-.81.37-.44.09-.72.04-.84-.01Z"/>
      <path class="cls-1" d="M286.18,295.15c.07.13.16.25.3.35.25.17.6.28,1.02.32.04.07.11.15.2.21.3.21.83.26,1.41.15.64-.13,1.3-.48,1.38-.96.58-.31.98-.71,1.04-1.17h.05s-.29-1.85-.29-1.85c-.04-.24-.18-.45-.4-.6-.52-.36-1.5-.45-2.56-.24-.28.06-.56.14-.83.23-1,.36-1.78.98-1.67,1.69l.3,1.87h.06ZM290.87,293.92h0c.02.14-.15.34-.46.55l-.02-.14c-.02-.11-.07-.26-.25-.39-.29-.2-.82-.25-1.42-.13-.16.03-.32.08-.47.13-.55.2-.99.54-.92.98l.03.17c-.2-.04-.37-.1-.48-.16-.07-.05-.11-.1-.12-.15-.05-.29.71-.9,1.96-1.15.98-.2,1.74-.07,2.03.13.07.05.11.1.12.15ZM288.14,295.51c.09-.1.37-.28.81-.37.44-.09.72-.04.84.01-.1.1-.37.28-.81.37-.44.09-.72.04-.84-.01Z"/>
      <path class="cls-1" d="M243.18,321.97c2.02-.68,4.81-1.59,7.52-2.48,2.32-.76,4.51-1.47,6.16-2.02,2.92-.98,2.92-1,2.9-1.25v-.19s-.21-.05-.21-.05c-.46-.1-2.21-.75-2.46-2.08-.19-1.01-.07-2.14,0-2.82.06-.52.07-.65-.06-.76-.08-.06-.18-.08-.27-.05,0,0,0,0,0,0-.16.06-.19.2-.25.45-.16.69-.57,2.53-2.94,5.09-2.38,2.57-10.48,5.65-10.56,5.68l.17.48Z"/>
      <path class="cls-1" d="M264.44,306.38c.17-.08.35-.17.51-.3.04-.03.08-.07.12-.1.04-.04.08-.08.11-.13.07-.1.14-.21.14-.36,0-.15-.07-.27-.15-.35-.08-.08-.17-.13-.26-.16-.18-.07-.36-.1-.54-.11.15.12.29.24.39.37.05.06.09.12.1.17,0,.05-.02.06-.05.04-.01-.02-.04-.02-.07,0l-.07.03-.09.03c-.13.04-.27.07-.42.1-.61.12-1.28.17-1.93.21-.66.04-1.32.06-1.96.03-.16,0-.31-.03-.45-.04-.14-.01-.28-.06-.33-.07,0,0-.03,0-.04,0-.01,0-.03,0-.04,0-.02-.02-.01-.08.01-.15.06-.14.18-.28.31-.42-.18.04-.35.1-.52.21-.08.06-.16.14-.2.26-.04.13-.01.27.05.39.13.21.32.32.49.41.17.09.36.16.54.21.73.22,1.47.25,2.2.22.73-.05,1.47-.17,2.17-.49Z"/>
      <path class="cls-1" d="M265.47,303.79c-.05-.03-.1-.06-.15-.09l-.62-2.27-.34,2.09c-.12.01-.24.02-.36.03-.27.03-.54.06-.8.11-.27.04-.53.09-.8.15-.27.06-.53.12-.8.21.27.06.54.09.82.13.27.03.54.05.81.07.27.02.54.02.81.03.23,0,.46,0,.7,0,.13.07.25.15.38.21.16.08.33.15.5.22.17.06.34.12.52.16.18.04.37.08.57.09-.11-.17-.24-.31-.37-.44-.13-.13-.27-.25-.41-.36-.14-.11-.29-.22-.44-.31Z"/>
      <path class="cls-1" d="M259.43,304.47c.22-.03.44-.07.66-.13.26-.07.52-.16.78-.29-.27-.11-.54-.17-.81-.21-.11-.02-.22-.02-.33-.03l-.57-2.1-.39,2.35c-.24.16-.48.32-.7.51-.15.14-.3.29-.44.45-.14.16-.27.33-.38.53.23-.04.43-.1.63-.18.2-.08.39-.17.57-.26.35-.18.67-.41.97-.65Z"/>
      <path class="cls-1" d="M84.13,138.11h0s0,0,0,0l-.61-2.3c-.1-.36-.35-.67-.73-.87-.75-.41-1.91-.42-3.12-.02-.08.02-.15.05-.22.08-1.74.63-2.82,1.86-2.54,2.91l.61,2.3h0s0,0,0,0l.09.35.08-.02c.13.22.3.41.56.55.33.18.74.27,1.2.29.09.14.2.26.35.34.43.23,1.08.24,1.74.03.95-.31,1.56-.93,1.56-1.53.68-.53,1.08-1.17,1.06-1.77l.05-.02-.08-.3ZM83.23,138.34c.05.2-.08.51-.38.83l-.05-.2c-.06-.23-.21-.41-.44-.54-.42-.23-1.08-.23-1.76,0-.04.01-.08.03-.12.04-.87.32-1.62.97-1.43,1.67l.07.27c-.17-.03-.32-.08-.44-.15-.15-.08-.24-.18-.28-.3-.12-.45.64-1.38,2.16-1.87.94-.31,1.89-.32,2.4-.04.15.08.24.18.28.3ZM81.25,140.85c-.56.18-.96.1-1.04.02.02-.1.31-.45.93-.65.56-.18.95-.1,1.04-.03-.03.12-.32.46-.92.65Z"/>
      <path class="cls-1" d="M108.12,124.84l.05-.02-.08-.3s0,0,0,0h0s-.61-2.3-.61-2.3c-.1-.36-.35-.67-.73-.87-.75-.41-1.91-.42-3.12-.02-.08.02-.15.05-.22.08-1.74.63-2.82,1.86-2.54,2.91l.61,2.3h0s0,0,0,0l.09.35.08-.02c.13.22.3.41.56.55.33.18.74.26,1.2.29.09.14.2.26.35.34.43.23,1.08.24,1.74.03.95-.31,1.56-.93,1.56-1.53.68-.53,1.08-1.17,1.06-1.78ZM105.21,127.27c-.56.18-.96.1-1.04.03.02-.1.31-.45.93-.65.56-.18.95-.1,1.04-.03-.03.12-.32.46-.92.65ZM106.82,125.59l-.05-.2c-.06-.23-.21-.41-.44-.54-.42-.23-1.08-.23-1.76,0-.04.01-.08.03-.12.04-.87.32-1.62.97-1.43,1.67l.07.27c-.17-.03-.32-.08-.44-.15-.15-.08-.24-.18-.28-.3-.12-.45.64-1.38,2.16-1.87.94-.31,1.89-.32,2.4-.04.15.08.24.18.28.3.05.21-.08.51-.38.83Z"/>
      <path class="cls-1" d="M107.74,169.88c.12-.06.25-.13.36-.24.03-.02.05-.05.08-.09.03-.03.05-.06.07-.1.04-.07.07-.17.07-.26,0-.1-.05-.18-.1-.24-.05-.06-.11-.1-.17-.14-.12-.07-.25-.1-.38-.12.09.1.18.2.23.3.02.05.04.1.04.13,0,.04-.02.05-.04.05-.04-.03-.2.06-.41.09-.4.06-.86.09-1.31.09-.45,0-.9,0-1.32-.06-.1-.01-.2-.04-.29-.06-.09-.02-.15-.05-.19-.05-.02,0-.04,0-.06-.02-.01-.02,0-.06,0-.12.03-.1.11-.21.2-.31-.13.03-.25.07-.37.15-.06.04-.11.1-.15.18-.04.08-.04.18-.02.27.05.18.17.29.28.38.11.09.24.15.36.21.5.22,1.03.28,1.55.28.52-.01,1.05-.09,1.55-.33Z"/>
      <path class="cls-1" d="M161.1,109.62c.54,1.62,1.24,3.18,2.05,4.67.82,1.49,1.75,2.92,2.82,4.26,1.08,1.32,2.27,2.58,3.72,3.56.36.24.74.47,1.14.66.4.19.83.35,1.29.43.45.08.96.07,1.42-.1.47-.16.86-.51,1.11-.9.25-.4.38-.84.46-1.27.08-.43.1-.86.08-1.29-.03-.85-.18-1.69-.39-2.5.04.42.08.83.09,1.25.02.42,0,.83-.02,1.24-.03.41-.09.81-.2,1.2-.11.38-.27.74-.49,1.03-.22.29-.51.51-.84.59-.33.09-.69.08-1.05-.02-.72-.19-1.42-.6-2.05-1.08-.21-.16-.4-.33-.6-.5.87.47,1.64.58,2.21.26.97-.55,1.16-2.24.67-4.47.41-.25.9-.54,1.5-.9h0c.19-.12.32-.28.42-.46.38-.38.67-1.12.42-2.6-.06-.36-.16-.74-.27-1.13-.03.02-.06.03-.09.05.09-.05.18-.15.26-.29.12-.23.19-.58.09-1.19-.12-.67-.44-1.48-.88-2.27-.81-1.43-2.05-2.72-2.84-2.44,0,0,0,0,0,0-.03.01-.06.03-.09.04-.78.44-.3,2.26.54,3.75.45.79.98,1.47,1.49,1.93.73.64,1.19.61,1.44.47-.51.29-1.66.95-1.75.97-1.02.24-2.05-.52-3.01-2.22-.95-1.68-1.27-3.38-.69-3.77.49-.35,1.96-1.18,1.96-1.18.01,0,0,0,.02,0-1.14-1.19-2.33-1.9-3.24-1.57-.04.02-.08.04-.12.06-.04.01-.07,0-.12.02-.08.03-.17.07-.25.12-.09.05-.73.41-1.48.83-1.61-1.49-3.11-2.17-4.05-1.64-.33.18-.56.5-.72.92-.02-.66.03-1.31.23-1.89.12-.35.31-.66.57-.88.26-.23.6-.34.96-.37.37-.03.76.04,1.14.16.38.12.75.29,1.11.48.36.19.71.41,1.05.65.35.23.67.49,1,.75-.56-.62-1.18-1.2-1.88-1.69-.35-.25-.72-.46-1.13-.63-.4-.17-.84-.3-1.31-.31-.46-.01-.97.11-1.37.41-.4.29-.69.71-.87,1.13-.37.86-.43,1.76-.42,2.63.01.87.13,1.73.3,2.57.17.84.4,1.67.67,2.48ZM165.23,113.07c-.5-.89-.86-1.72-1.13-2.49l3.33-1.89c.28.76.65,1.54,1.09,2.32.46.81.99,1.58,1.55,2.27-.45.27-1.4.83-3.36,1.93-.5-.59-1-1.3-1.48-2.15ZM170.15,117.02c-.88.2-1.86-.22-2.84-1.16,1.15-.65,2.63-1.49,3.33-1.92.7.74,1.42,1.31,2.09,1.56-1.21.73-2.36,1.41-2.58,1.51ZM166.88,106.72c.06.37.16.76.28,1.16l-3.32,1.88c-.39-1.46-.33-2.5.05-2.75h.01c.54-.4,1.97-1.23,2.92-1.76-.05.39-.05.87.06,1.48Z"/>
      <path class="cls-1" d="M117.57,145.86c.4.03.8.02,1.19-.03.39-.04.78-.12,1.17-.24.38-.12.77-.28,1.13-.54-.42-.17-.82-.23-1.23-.26-.4-.03-.8-.02-1.19.03-.39.05-.78.13-1.17.25-.38.12-.77.28-1.13.53.42.17.82.23,1.23.26Z"/>
      <path class="cls-1" d="M122.51,143.21c.39-.04.78-.12,1.17-.23.39-.11.77-.25,1.14-.47-.41-.13-.82-.18-1.22-.2-.4-.02-.8,0-1.19.05s-.78.12-1.17.23c-.39.11-.77.25-1.14.47.41.13.82.18,1.22.2.4.02.8,0,1.19-.04Z"/>
      <path class="cls-1" d="M89.67,163.18c.21-.31.41-.63.58-.96.17-.34.32-.68.42-1.07-.33.23-.6.49-.86.77-.25.28-.49.57-.7.88-.21.31-.41.63-.58.96-.17.34-.32.68-.42,1.07.33-.23.6-.49.86-.77.25-.28.49-.57.7-.88Z"/>
    </g>
  </g>
</svg>