<?xml version="1.0" encoding="UTF-8"?>
<svg id="Layer_2" data-name="Layer 2" xmlns="http://www.w3.org/2000/svg" viewBox="0 0 602.49 217.71">
  <defs>
    <style>
      .cls-1 {
        fill: #ed1c24;
      }
    </style>
  </defs>
  <g id="Laag_1" data-name="Laag 1">
    <g>
      <path class="cls-1" d="M313.14,120.13c-2.52.27-4.98.78-7.41,1.4-4.86,1.29-9.53,3.21-13.98,5.6-4.44,2.4-8.67,5.25-12.57,8.59-1.95,1.67-3.82,3.45-5.59,5.36-.88.96-1.75,1.94-2.58,2.96l-1.24,1.53c-.42.5-.79,1.06-1.31,1.46.33.1.68.05,1.01.01.34-.04.65-.11.98-.17.64-.14,1.27-.3,1.88-.48,1.24-.35,2.43-.76,3.61-1.18,2.36-.85,4.63-1.8,6.86-2.78,4.47-1.97,8.76-4.14,13.01-6.41,4.24-2.27,8.42-4.65,12.57-7.23,4.15-2.63,8.31-5.27,12.42-8.75-1.3-.15-2.59-.21-3.86-.17-1.28.02-2.54.11-3.8.25Z"/>
      <path class="cls-1" d="M382,99.62c-2.51-.29-5.02-.33-7.52-.25-5,.19-9.94,1.05-14.74,2.42-4.8,1.38-9.47,3.24-13.91,5.66-2.22,1.21-4.38,2.54-6.47,4.03-1.04.75-2.07,1.52-3.08,2.33l-1.5,1.23c-.51.4-.97.86-1.55,1.14.3.17.66.19.99.23.34.04.66.04.99.05.65,0,1.3-.01,1.93-.06,1.28-.07,2.52-.21,3.75-.36,2.46-.31,4.87-.75,7.24-1.22,4.74-.95,9.35-2.13,13.93-3.42,4.58-1.29,9.11-2.71,13.66-4.32,4.55-1.67,9.12-3.34,13.8-5.85-1.25-.43-2.5-.77-3.75-1.02-1.25-.26-2.51-.45-3.76-.59Z"/>
      <path class="cls-1" d="M505.89,129.17c-1.87,0-1.87,3.15,0,3.15s1.87-3.15,0-3.15Z"/>
      <path class="cls-1" d="M552.97,132.57c-1.87,0-1.87,3.15,0,3.15s1.87-3.15,0-3.15Z"/>
      <path class="cls-1" d="M560.29,101.93c-1.87,0-1.87,3.15,0,3.15s1.87-3.15,0-3.15Z"/>
      <path class="cls-1" d="M575.98,116.68c-1.87,0-1.87,3.15,0,3.15s1.87-3.15,0-3.15Z"/>
      <path class="cls-1" d="M547.73,117.82c-1.87,0-1.87,3.15,0,3.15s1.87-3.15,0-3.15Z"/>
      <path class="cls-1" d="M550.87,111.01c-1.87,0-1.87,3.15,0,3.15s1.87-3.15,0-3.15Z"/>
      <path class="cls-1" d="M549.83,110.75h1.05c.76,0,1.49-.73,1.45-1.58-.04-.85-.64-1.58-1.45-1.58h-1.05c-.76,0-1.49.73-1.45,1.58.04.85.64,1.58,1.45,1.58Z"/>
      <path class="cls-1" d="M532.04,99.66c-1.16,0-1.6,1.22-1.32,2.15-.29.92.15,2.14,1.32,2.14s1.6-1.22,1.32-2.15c.29-.92-.15-2.14-1.32-2.14Z"/>
      <path class="cls-1" d="M538.32,103.06c-1.87,0-1.87,3.15,0,3.15s1.87-3.15,0-3.15Z"/>
      <path class="cls-1" d="M547.73,96.25c-.46,0-.81.19-1.05.49-.23-.29-.58-.49-1.05-.49-1.87,0-1.87,3.15,0,3.15.46,0,.81-.19,1.05-.49.23.29.58.49,1.05.49,1.87,0,1.87-3.15,0-3.15Z"/>
      <path class="cls-1" d="M558.2,91.71c-1.87,0-1.87,3.15,0,3.15s1.87-3.15,0-3.15Z"/>
      <path class="cls-1" d="M536.23,109.08c-2.8,0-2.81,4.73,0,4.73s2.81-4.73,0-4.73Z"/>
      <path class="cls-1" d="M567.61,87.52h-1.05c-.56,0-1.15.26-1.54.69-.38.41-.66,1.08-.64,1.67.03.61.21,1.25.64,1.67.43.42.95.69,1.54.69h1.05c.56,0,1.15-.26,1.54-.69.38-.41.66-1.08.64-1.67-.03-.61-.21-1.25-.64-1.67-.43-.42-.95-.69-1.54-.69Z"/>
      <path class="cls-1" d="M578.07,73.9c-2.8,0-2.81,4.73,0,4.73s2.81-4.73,0-4.73Z"/>
      <path class="cls-1" d="M562.38,84.3c2.8,0,2.81-4.73,0-4.73s-2.81,4.73,0,4.73Z"/>
      <path class="cls-1" d="M580.17,96.25c-1.87,0-1.87,3.15,0,3.15s1.87-3.15,0-3.15Z"/>
      <path class="cls-1" d="M601.09,89.44c-1.87,0-1.87,3.15,0,3.15s1.87-3.15,0-3.15Z"/>
      <path class="cls-1" d="M498.91,110.63c-1.87,0-1.87,3.15,0,3.15s1.87-3.15,0-3.15Z"/>
      <path class="cls-1" d="M544.94,108.39c-.14,0-.25.04-.35.11-.17-.57-.61-1.04-1.33-1.04-1.87,0-1.87,3.15,0,3.15.62,0,1.03-.35,1.24-.82.11.1.25.18.44.18.93,0,.94-1.58,0-1.58Z"/>
      <path class="cls-1" d="M540.76,103.09c-.94,0-.94,1.58,0,1.58s.94-1.58,0-1.58Z"/>
      <path class="cls-1" d="M548.43,105.43c.93,0,.94-1.58,0-1.58s-.94,1.58,0,1.58Z"/>
      <path class="cls-1" d="M550.52,101.64c.93,0,.94-1.58,0-1.58s-.94,1.58,0,1.58Z"/>
      <path class="cls-1" d="M532.39,114.51c.94,0,.94-1.58,0-1.58s-.94,1.58,0,1.58Z"/>
      <path class="cls-1" d="M502.4,130.33c-.93,0-.94,1.58,0,1.58s.94-1.58,0-1.58Z"/>
      <path class="cls-1" d="M502.4,122.01h-2.09c-.93,0-.94,1.58,0,1.58h2.09c.94,0,.94-1.58,0-1.58Z"/>
      <path class="cls-1" d="M510.37,118.26c-.46.25-.93.51-1.39.76-.35.19-.45.73-.26,1.08.21.39.64.47.99.28.46-.25.93-.51,1.39-.76.35-.19.45-.73.26-1.08-.21-.39-.64-.47-.99-.28Z"/>
      <path class="cls-1" d="M535.18,134.12c-.94,0-.94,1.58,0,1.58s.94-1.58,0-1.58Z"/>
      <path class="cls-1" d="M518.44,131.85c-.93,0-.94,1.58,0,1.58s.94-1.58,0-1.58Z"/>
      <path class="cls-1" d="M531,116.71c-.94,0-.94,1.58,0,1.58s.94-1.58,0-1.58Z"/>
      <path class="cls-1" d="M565.17,117.47h-2.09c-.94,0-.94,1.58,0,1.58h2.09c.94,0,.94-1.58,0-1.58Z"/>
      <path class="cls-1" d="M554.01,103.85c-.93,0-.94,1.58,0,1.58s.94-1.58,0-1.58Z"/>
      <path class="cls-1" d="M563.3,90.84c-1.4-.25-2.79-.5-4.19-.75-.91-.16-1.31,1.36-.39,1.52,1.4.25,2.79.5,4.19.75.91.16,1.31-1.36.39-1.52Z"/>
      <path class="cls-1" d="M554.75,94.38c-.46.76-.93,1.51-1.39,2.27-.52.85.74,1.64,1.25.8.46-.76.93-1.51,1.39-2.27.52-.85-.74-1.64-1.25-.8Z"/>
      <path class="cls-1" d="M473.17,119.94c-1.87,0-1.87,3.15,0,3.15s1.87-3.15,0-3.15Z"/>
      <path class="cls-1" d="M520.25,123.34c-1.87,0-1.87,3.15,0,3.15s1.87-3.15,0-3.15Z"/>
      <path class="cls-1" d="M515.02,108.59c-1.87,0-1.87,3.15,0,3.15s1.87-3.15,0-3.15Z"/>
      <path class="cls-1" d="M518.16,101.78c-1.87,0-1.87,3.15,0,3.15s1.87-3.15,0-3.15Z"/>
      <path class="cls-1" d="M515.66,99.95c.04.85.64,1.58,1.45,1.58h1.05c.76,0,1.49-.73,1.45-1.58-.04-.85-.64-1.58-1.45-1.58h-1.05c-.76,0-1.49.73-1.45,1.58Z"/>
      <path class="cls-1" d="M499.32,94.71c1.16,0,1.6-1.22,1.32-2.15.29-.92-.15-2.14-1.32-2.14s-1.6,1.22-1.32,2.15c-.29.92.15,2.14,1.32,2.14Z"/>
      <path class="cls-1" d="M495.14,91.56c-1.87,0-1.87,3.15,0,3.15s1.87-3.15,0-3.15Z"/>
      <path class="cls-1" d="M505.6,93.83c-1.87,0-1.87,3.15,0,3.15s1.87-3.15,0-3.15Z"/>
      <path class="cls-1" d="M515.02,87.02c-.46,0-.81.19-1.05.49-.23-.29-.58-.49-1.05-.49-1.87,0-1.87,3.15,0,3.15.46,0,.81-.19,1.05-.49.23.29.58.49,1.05.49,1.87,0,1.87-3.15,0-3.15Z"/>
      <path class="cls-1" d="M490.95,93.04c-2.8,0-2.81,4.73,0,4.73s2.81-4.73,0-4.73Z"/>
      <path class="cls-1" d="M503.51,99.85c-.17,0-.34.02-.49.05.29-.92-.15-2.14-1.32-2.14-1.87,0-1.87,3.15,0,3.15,0,0,.01,0,.02,0-.76,1.39-.16,3.67,1.79,3.67,2.8,0,2.81-4.73,0-4.73Z"/>
      <path class="cls-1" d="M495.14,52.37c2.8,0,2.81-4.73,0-4.73s-2.81,4.73,0,4.73Z"/>
      <path class="cls-1" d="M483.63,39.88c2.8,0,2.81-4.73,0-4.73s-2.81,4.73,0,4.73Z"/>
      <path class="cls-1" d="M568.37,83.36c1.87,0,1.87-3.15,0-3.15s-1.87,3.15,0,3.15Z"/>
      <path class="cls-1" d="M466.19,101.4c-1.87,0-1.87,3.15,0,3.15s1.87-3.15,0-3.15Z"/>
      <path class="cls-1" d="M468.98,88.53c-1.87,0-1.87,3.15,0,3.15s1.87-3.15,0-3.15Z"/>
      <path class="cls-1" d="M512.23,99.16c-.94,0-.94,1.58,0,1.58s.94-1.58,0-1.58Z"/>
      <path class="cls-1" d="M508.04,93.86c-.93,0-.94,1.58,0,1.58s.94-1.58,0-1.58Z"/>
      <path class="cls-1" d="M515.71,94.62c-.93,0-.94,1.58,0,1.58s.94-1.58,0-1.58Z"/>
      <path class="cls-1" d="M517.81,92.41c.94,0,.94-1.58,0-1.58s-.94,1.58,0,1.58Z"/>
      <path class="cls-1" d="M499.67,105.28c.94,0,.94-1.58,0-1.58s-.94,1.58,0,1.58Z"/>
      <path class="cls-1" d="M469.68,121.11c-.94,0-.94,1.58,0,1.58s.94-1.58,0-1.58Z"/>
      <path class="cls-1" d="M469.68,112.78h-2.09c-.94,0-.94,1.58,0,1.58h2.09c.93,0,.94-1.58,0-1.58Z"/>
      <path class="cls-1" d="M477.65,109.03c-.46.25-.93.51-1.39.76-.35.19-.45.73-.26,1.08.21.39.64.47.99.28.46-.25.93-.51,1.39-.76.35-.19.45-.73.26-1.08-.21-.39-.64-.47-.99-.28Z"/>
      <path class="cls-1" d="M502.46,124.89c-.94,0-.94,1.58,0,1.58s.94-1.58,0-1.58Z"/>
      <path class="cls-1" d="M494.79,128.67c-.93,0-.94,1.58,0,1.58s.94-1.58,0-1.58Z"/>
      <path class="cls-1" d="M485.72,122.62c-.94,0-.94,1.58,0,1.58s.94-1.58,0-1.58Z"/>
      <path class="cls-1" d="M498.28,109.06c.93,0,.94-1.58,0-1.58s-.94,1.58,0,1.58Z"/>
      <path class="cls-1" d="M532.45,108.24h-2.09c-.94,0-.94,1.58,0,1.58h2.09c.94,0,.94-1.58,0-1.58Z"/>
      <path class="cls-1" d="M250.22,15c2.93,0,2.94-4.94,0-4.94s-2.94,4.94,0,4.94Z"/>
      <path class="cls-1" d="M235.46,16.43c1.47,0,1.47-2.47,0-2.47s-1.47,2.47,0,2.47Z"/>
      <path class="cls-1" d="M260.06,71.59c1.47,0,1.47-2.47,0-2.47s-1.47,2.47,0,2.47Z"/>
      <path class="cls-1" d="M278.1,59.13c1.47,0,1.47-2.47,0-2.47s-1.47,2.47,0,2.47Z"/>
      <path class="cls-1" d="M279.74,26.84c2.2,0,2.2-3.71,0-3.71s-2.2,3.71,0,3.71Z"/>
      <path class="cls-1" d="M240.38,13.49c2.2,0,2.2-3.71,0-3.71s-2.2,3.71,0,3.71Z"/>
      <path class="cls-1" d="M231.36,3.71c2.2,0,2.2-3.71,0-3.71s-2.2,3.71,0,3.71Z"/>
      <path class="cls-1" d="M256.78,7.27c2.2,0,2.2-3.71,0-3.71s-2.2,3.71,0,3.71Z"/>
      <path class="cls-1" d="M281.38,43.12c1.47,0,1.47-2.47,0-2.47s-1.47,2.47,0,2.47Z"/>
      <path class="cls-1" d="M297.78,37.78c1.47,0,1.47-2.47,0-2.47s-1.47,2.47,0,2.47Z"/>
      <path class="cls-1" d="M225.38,59.34c.16.3.5.37.78.22.36-.2.73-.4,1.09-.6.27-.15.35-.57.2-.85-.16-.3-.5-.37-.78-.22l-1.09.6c-.27.15-.35.57-.2.85Z"/>
      <path class="cls-1" d="M267.99,57.28c-.73,0-.73,1.24,0,1.24h1.64c.73,0,.73-1.24,0-1.24h-1.64Z"/>
      <path class="cls-1" d="M19.38,74.59c-1.41,0-1.41,2.38,0,2.38s1.41-2.38,0-2.38Z"/>
      <path class="cls-1" d="M36.72,113.92c-1.41,0-1.41,2.38,0,2.38s1.41-2.38,0-2.38Z"/>
      <path class="cls-1" d="M72.18,116.49c-1.41,0-1.41,2.38,0,2.38s1.41-2.38,0-2.38Z"/>
      <path class="cls-1" d="M77.7,93.4c-1.41,0-1.41,2.38,0,2.38s1.41-2.38,0-2.38Z"/>
      <path class="cls-1" d="M89.52,104.52c-1.41,0-1.41,2.38,0,2.38s1.41-2.38,0-2.38Z"/>
      <path class="cls-1" d="M68.24,105.37c-1.41,0-1.41,2.38,0,2.38s1.41-2.38,0-2.38Z"/>
      <path class="cls-1" d="M70.61,100.24c-1.41,0-1.41,2.38,0,2.38s1.41-2.38,0-2.38Z"/>
      <path class="cls-1" d="M68.72,98.86c.03.64.48,1.19,1.09,1.19h.79c.57,0,1.12-.55,1.09-1.19-.03-.64-.48-1.19-1.09-1.19h-.79c-.57,0-1.12.55-1.09,1.19Z"/>
      <path class="cls-1" d="M59.57,98.79c-2.11,0-2.12,3.56,0,3.56s2.12-3.56,0-3.56Z"/>
      <path class="cls-1" d="M92.68,91.5c1.41,0,1.41-2.38,0-2.38s-1.41,2.38,0,2.38Z"/>
      <path class="cls-1" d="M108.44,84c-1.41,0-1.41,2.38,0,2.38s1.41-2.38,0-2.38Z"/>
      <path class="cls-1" d="M31.46,99.96c-1.41,0-1.41,2.38,0,2.38s1.41-2.38,0-2.38Z"/>
      <path class="cls-1" d="M33.57,92.64c.11,0,.2-.04.3-.07.14.7.86,1.31,1.63.89.48-.26.97-.52,1.45-.79.03-.01.05-.03.08-.04.54-.29,1.08-.59,1.63-.88,1.26-.68.15-2.73-1.1-2.05-.48.26-.97.52-1.45.79-.03.01-.05.03-.08.04-.47.26-.95.51-1.42.77-.05-.54-.39-1.04-1.04-1.04-1.41,0-1.41,2.38,0,2.38Z"/>
      <path class="cls-1" d="M66.14,98.27c-.7,0-.71,1.19,0,1.19s.71-1.19,0-1.19Z"/>
      <path class="cls-1" d="M62.99,94.28c-.7,0-.71,1.19,0,1.19s.71-1.19,0-1.19Z"/>
      <path class="cls-1" d="M68.77,94.85c-.7,0-.71,1.19,0,1.19s.71-1.19,0-1.19Z"/>
      <path class="cls-1" d="M70.34,93.19c.7,0,.71-1.19,0-1.19s-.71,1.19,0,1.19Z"/>
      <path class="cls-1" d="M56.68,101.69c-.7,0-.71,1.19,0,1.19s.71-1.19,0-1.19Z"/>
      <path class="cls-1" d="M34.09,114.8c-.7,0-.71,1.19,0,1.19s.71-1.19,0-1.19Z"/>
      <path class="cls-1" d="M34.09,108.53h-1.58c-.7,0-.71,1.19,0,1.19h1.58c.7,0,.71-1.19,0-1.19Z"/>
      <path class="cls-1" d="M40.84,105.92c-.16-.29-.48-.36-.75-.21-.35.19-.7.38-1.05.57-.26.14-.34.55-.2.81.16.29.48.36.75.21.35-.19.7-.38,1.05-.57.26-.14.34-.55.2-.81Z"/>
      <path class="cls-1" d="M58.79,117.65c-.7,0-.71,1.19,0,1.19s.71-1.19,0-1.19Z"/>
      <path class="cls-1" d="M46.18,115.94c-.7,0-.71,1.19,0,1.19s.71-1.19,0-1.19Z"/>
      <path class="cls-1" d="M55.63,104.54c-.7,0-.71,1.19,0,1.19s.71-1.19,0-1.19Z"/>
      <path class="cls-1" d="M81.38,105.11h-1.58c-.7,0-.71,1.19,0,1.19h1.58c.7,0,.71-1.19,0-1.19Z"/>
      <path class="cls-1" d="M72.97,94.85c-.7,0-.71,1.19,0,1.19s.71-1.19,0-1.19Z"/>
      <path class="cls-1" d="M223.28,45.31c-2.82,0-2.82,4.75,0,4.75.19,0,.37-.03.54-.07-.08.38-.02.79.26,1.1.18.2.36.39.54.59-1.16.26-1.09,2.32.23,2.32.94,0,1.24-1.04.93-1.74.24-.03.47-.12.63-.32.4-.47.43-1.21,0-1.68-.26-.29-.53-.57-.79-.86-.17-.18-.39-.27-.63-.31.85-1.39.28-3.79-1.73-3.79Z"/>
      <path class="cls-1" d="M216.97,50.77c-1.27,0-1.39,1.91-.37,2.29-.04.65.32,1.32,1.09,1.32,1.34,0,1.45-2.07.33-2.42,0-.6-.35-1.2-1.06-1.2Z"/>
      <path class="cls-1" d="M216.19,43.93c-1.41,0-1.41,2.38,0,2.38s1.41-2.38,0-2.38Z"/>
      <path class="cls-1" d="M212.25,43.08c-1.41,0-1.41,2.38,0,2.38s1.41-2.38,0-2.38Z"/>
      <path class="cls-1" d="M239.04,84.79c1.41,0,1.41-2.38,0-2.38s-1.41,2.38,0,2.38Z"/>
      <path class="cls-1" d="M256.38,72.82c1.41,0,1.41-2.38,0-2.38s-1.41,2.38,0,2.38Z"/>
      <path class="cls-1" d="M220.13,58.47c-1.4,0-1.41,2.35-.02,2.37h-1.32c-.11,0-.2.04-.28.09-.15-.72-.66-1.34-1.54-1.34-2.11,0-2.12,3.56,0,3.56.82,0,1.31-.53,1.5-1.19.08.07.18.11.32.11h1.64c.73,0,.73-1.24,0-1.24h-.28c1.39-.02,1.38-2.37-.02-2.37Z"/>
      <path class="cls-1" d="M222.73,53.5c-.48.26-.97.52-1.45.79-.03.01-.05.03-.08.04-.54.29-1.08.59-1.63.88-1.26.68-.15,2.73,1.1,2.05.48-.26.97-.52,1.45-.79.03-.01.05-.03.08-.04l1.63-.88c1.26-.68.15-2.73-1.1-2.05Z"/>
      <path class="cls-1" d="M220.13,47.35c-.23,0-.41.08-.56.18-.2-.1-.43-.14-.68-.07-.52.15-.99.87-.76,1.46l1.62,4.25c.23.6.72,1.01,1.35.83.52-.15.99-.87.76-1.46l-1.15-3.02c.78-.55.6-2.18-.57-2.18Z"/>
      <path class="cls-1" d="M223.28,57.61c-.88,0-1.21.92-.99,1.62-.21.69.11,1.61.99,1.61s1.21-.92.99-1.62c.21-.69-.11-1.61-.99-1.61Z"/>
      <path class="cls-1" d="M235.89,50.18c-2.11,0-2.12,3.56,0,3.56s2.12-3.56,0-3.56Z"/>
      <path class="cls-1" d="M235.1,38.21c-2.11,0-2.12,3.56,0,3.56s2.12-3.56,0-3.56Z"/>
      <path class="cls-1" d="M211.46,19.54c2.11,0,2.12-3.56,0-3.56s-2.12,3.56,0,3.56Z"/>
      <path class="cls-1" d="M275.3,52.29c1.41,0,1.41-2.38,0-2.38s-1.41,2.38,0,2.38Z"/>
      <path class="cls-1" d="M198.32,65.88c-1.41,0-1.41,2.38,0,2.38s1.41-2.38,0-2.38Z"/>
      <path class="cls-1" d="M200.42,56.19c-1.41,0-1.41,2.38,0,2.38s1.41-2.38,0-2.38Z"/>
      <path class="cls-1" d="M199.37,74.45c-.7,0-.71,1.19,0,1.19h1.58c.7,0,.71-1.19,0-1.19h-1.58Z"/>
      <path class="cls-1" d="M206.45,73.23c.35-.19.7-.38,1.05-.57.26-.14.34-.55.2-.81-.16-.29-.48-.36-.75-.21-.35.19-.7.38-1.05.57-.26.14-.34.55-.2.81.16.29.48.36.75.21Z"/>
      <path class="cls-1" d="M31.79,86.98c-1.41,0-1.41,2.38,0,2.38s1.41-2.38,0-2.38Z"/>
      <path class="cls-1" d="M34.95,81.66c1.41,0,1.41-2.38,0-2.38s-1.41,2.38,0,2.38Z"/>
      <path class="cls-1" d="M31.01,82.51c1.41,0,1.41-2.38,0-2.38s-1.41,2.38,0,2.38Z"/>
      <path class="cls-1" d="M27.07,79.28c-1.41,0-1.41,2.38,0,2.38s1.41-2.38,0-2.38Z"/>
      <path class="cls-1" d="M23.91,71.59c-1.41,0-1.41,2.38,0,2.38s1.41-2.38,0-2.38Z"/>
      <path class="cls-1" d="M30.22,67.98c1.41,0,1.41-2.38,0-2.38s-1.41,2.38,0,2.38Z"/>
      <path class="cls-1" d="M1.06,76.72c-1.41,0-1.41,2.38,0,2.38s1.41-2.38,0-2.38Z"/>
      <path class="cls-1" d="M18.4,116.05c-1.41,0-1.41,2.38,0,2.38s1.41-2.38,0-2.38Z"/>
      <path class="cls-1" d="M53.86,118.62c-1,0-1.28,1.19-.86,1.88,0,0,0,0,0,0-.7,0-.71,1.19,0,1.19.43,0,.59-.43.5-.77.11.04.22.08.35.08,1.41,0,1.41-2.38,0-2.38Z"/>
      <path class="cls-1" d="M59.38,97.91c.89,0,1.21-.94.98-1.64.18.22.44.37.79.37,1.41,0,1.41-2.38,0-2.38-.89,0-1.21.94-.98,1.64-.18-.22-.44-.37-.79-.37-1.41,0-1.41,2.38,0,2.38Z"/>
      <path class="cls-1" d="M71.2,106.65c-1.41,0-1.41,2.38,0,2.38s1.41-2.38,0-2.38Z"/>
      <path class="cls-1" d="M49.92,107.5c-1.41,0-1.41,2.38,0,2.38s1.41-2.38,0-2.38Z"/>
      <path class="cls-1" d="M52.29,102.37c-1.41,0-1.41,2.38,0,2.38s1.41-2.38,0-2.38Z"/>
      <path class="cls-1" d="M51.5,102.18h.79c.57,0,1.12-.55,1.09-1.19-.03-.64-.48-1.19-1.09-1.19h-.79c-.57,0-1.12.55-1.09,1.19.03.64.48,1.19,1.09,1.19Z"/>
      <path class="cls-1" d="M34.95,97.05c1.41,0,1.41-2.38,0-2.38s-1.41,2.38,0,2.38Z"/>
      <path class="cls-1" d="M32.94,85.14c.54,1.42,1.08,2.84,1.62,4.25.23.6.72,1.01,1.35.83.52-.15.99-.87.76-1.46l-1.15-3.02c.78-.55.6-2.18-.57-2.18-.23,0-.41.08-.56.18-.2-.1-.43-.14-.68-.07-.52.15-.99.87-.76,1.46Z"/>
      <path class="cls-1" d="M38.1,93.82c-.88,0-1.21.92-.99,1.62-.21.69.11,1.61.99,1.61s1.21-.92.99-1.62c.21-.69-.11-1.61-.99-1.61Z"/>
      <path class="cls-1" d="M42.83,96.39c-1.41,0-1.41,2.38,0,2.38s1.41-2.38,0-2.38Z"/>
      <path class="cls-1" d="M28.64,76.12c-2.11,0-2.12,3.56,0,3.56s2.12-3.56,0-3.56Z"/>
      <path class="cls-1" d="M31.79,99.36c2.11,0,2.12-3.56,0-3.56s-2.12,3.56,0,3.56Z"/>
      <path class="cls-1" d="M41.25,100.92c-2.11,0-2.12,3.56,0,3.56s2.12-3.56,0-3.56Z"/>
      <path class="cls-1" d="M34.95,65.15c2.11,0,2.12-3.56,0-3.56s-2.12,3.56,0,3.56Z"/>
      <path class="cls-1" d="M26.28,52.18c-2.11,0-2.12,3.56,0,3.56s2.12-3.56,0-3.56Z"/>
      <path class="cls-1" d="M90.12,86.12c-1.41,0-1.41,2.38,0,2.38s1.41-2.38,0-2.38Z"/>
      <path class="cls-1" d="M13.14,102.09c-1.41,0-1.41,2.38,0,2.38s1.41-2.38,0-2.38Z"/>
      <path class="cls-1" d="M15.24,92.4c-1.41,0-1.41,2.38,0,2.38s1.41-2.38,0-2.38Z"/>
      <path class="cls-1" d="M47.82,100.4c-.7,0-.71,1.19,0,1.19s.71-1.19,0-1.19Z"/>
      <path class="cls-1" d="M44.67,96.41c-.7,0-.71,1.19,0,1.19s.71-1.19,0-1.19Z"/>
      <path class="cls-1" d="M38.36,103.82c-.7,0-.71,1.19,0,1.19s.71-1.19,0-1.19Z"/>
      <path class="cls-1" d="M15.77,116.93c-.7,0-.71,1.19,0,1.19s.71-1.19,0-1.19Z"/>
      <path class="cls-1" d="M15.77,110.66h-1.58c-.7,0-.71,1.19,0,1.19h1.58c.7,0,.71-1.19,0-1.19Z"/>
      <path class="cls-1" d="M21.77,107.84c-.35.19-.7.38-1.05.57-.26.14-.34.55-.2.81.16.29.48.36.75.21.35-.19.7-.38,1.05-.57.26-.14.34-.55.2-.81-.16-.29-.48-.36-.75-.21Z"/>
      <path class="cls-1" d="M40.46,119.78c-.7,0-.71,1.19,0,1.19s.71-1.19,0-1.19Z"/>
      <path class="cls-1" d="M34.68,122.63c-.7,0-.71,1.19,0,1.19s.71-1.19,0-1.19Z"/>
      <path class="cls-1" d="M27.85,118.07c-.7,0-.71,1.19,0,1.19s.71-1.19,0-1.19Z"/>
      <path class="cls-1" d="M37.31,106.67c-.7,0-.71,1.19,0,1.19s.71-1.19,0-1.19Z"/>
      <path class="cls-1" d="M63.06,107.24h-1.58c-.7,0-.71,1.19,0,1.19h1.58c.7,0,.71-1.19,0-1.19Z"/>
      <path class="cls-1" d="M54.65,96.98c-.7,0-.71,1.19,0,1.19s.71-1.19,0-1.19Z"/>
      <path class="cls-1" d="M46.44,46.75c1.41,0,1.41-2.38,0-2.38s-1.41,2.38,0,2.38Z"/>
      <path class="cls-1" d="M52.74,40.76c1.41,0,1.41-2.38,0-2.38s-1.41,2.38,0,2.38Z"/>
      <path class="cls-1" d="M23.58,49.51c-1.41,0-1.41,2.38,0,2.38s1.41-2.38,0-2.38Z"/>
      <path class="cls-1" d="M76.39,91.41c-.57,0-.89.39-1.01.84-.07-.52-.4-1-1.03-1-1.41,0-1.41,2.38,0,2.38.57,0,.89-.39,1.01-.84.07.52.4,1,1.03,1,1.41,0,1.41-2.38,0-2.38Z"/>
      <path class="cls-1" d="M57.47,37.94c2.11,0,2.12-3.56,0-3.56s-2.12,3.56,0,3.56Z"/>
      <path class="cls-1" d="M48.8,28.53c2.11,0,2.12-3.56,0-3.56s-2.12,3.56,0,3.56Z"/>
      <path class="cls-1" d="M73.23,31.95c2.11,0,2.12-3.56,0-3.56s-2.12,3.56,0,3.56Z"/>
      <path class="cls-1" d="M57.21,95.42c-.7,0-.71,1.19,0,1.19s.71-1.19,0-1.19Z"/>
      <path class="cls-1" d="M529.39,98.76c.37-.2.73-.4,1.1-.6.08-.03.15-.07.22-.12.69-.37,1.38-.75,2.07-1.12,1.13-.62.82-2.06-.02-2.65.14.07.28.13.42.2.23.24.55.4.96.4,0,0,0,0,0,0,.46.17.94.32,1.43.45-.09,1.36.7,2.52,1.73,3.09-.08.44.13.97.67.97.38,0,.6-.27.67-.58.88.01,1.75-.45,2.28-1.59.26-.54.49-1.08.72-1.63,1.74-.27,3.6-.84,5.57-1.78.35.43.87.72,1.57.72,1.58,0,2.27-1.5,2.07-2.82.03-.02.06-.04.08-.06.21.94.88,1.74,2.03,1.74,2.24,0,2.69-3,1.36-4.22,2.69.03,5.37.18,8.05.5.93.11.92-1.47,0-1.58-2.21-.26-4.42-.41-6.64-.48,10.66-11.4,8.37-29.37-5.05-35.27.56-1.4-.07-3.41-1.9-3.41-1.3,0-1.99,1.01-2.09,2.1-4.17-.95-9.14-.9-14.87.52l-.14.4c-2.41-.19-4.79-.32-7.16-.4-4.72-.12-9.4-.07-14.06.12.23-1.73-.69-3.68-2.77-3.68-2.19,0-3.09,2.16-2.71,3.96-3.98.26-7.95.61-11.92,1.05-1.08.12-2.15.25-3.22.39-.23-.25-.55-.41-.97-.41-.57,0-.96.29-1.18.69-8.57,1.14-17.1,2.7-25.53,4.91-5.09,1.36-10.15,2.93-15.08,5.02-2.46,1.05-4.9,2.22-7.23,3.65-1.16.72-2.3,1.52-3.37,2.41-1.07.9-2.09,1.91-2.88,3.13l.82.81c1.92-1.63,4.25-2.6,6.63-3.35,2.38-.77,4.83-1.32,7.3-1.78.22-.04.45-.07.67-.11-.56.92-.19,2.51,1.15,2.51,1.51,0,1.8-2.06.87-2.85,1.59-.25,3.18-.49,4.78-.67,2.5-.31,5.01-.54,7.53-.74,9.26-.71,18.56-.92,27.84-.87,0,.05,0,.09,0,.14-.05,1.14.59,2.15,1.47,2.71-1.26.16-2.52.32-3.78.49-.08-1.11-.77-2.15-2.09-2.15-1.54,0-2.23,1.42-2.08,2.7-.52.07-1.05.14-1.57.21-20.44,2.82-40.8,6.17-61.15,9.43-10.17,1.65-20.32,3.42-30.47,5.21l-15.22,2.67c-5.05.9-10.21,1.78-15.29,2.82-20.39,4.11-40.42,9.84-60.15,16.4-19.73,6.59-39.14,14.18-58.32,22.26-19.18,8.09-38.09,16.83-56.98,25.43-9.44,4.31-18.82,8.72-28.25,12.93-1.08.48-2.16.96-3.24,1.44-26.92,5.87-33.29,1.06-34.59-2.64-.52-1.47.06-4.02,1.62-7.17,3.81-7.67,11.99-16.91,19.38-24.03,1.12-.7,2.23-1.4,3.35-2.09,4.45-2.72,8.92-5.41,13.42-8.04,9-5.28,18.11-10.38,27.22-15.52,9.12-5.13,18.22-10.35,27.3-15.71,4.52-2.72,9.05-5.45,13.52-8.33.08-.05.17-.11.25-.16.04,0,.07.02.11.02.28,0,.45-.19.5-.42,1.95-1.25,3.9-2.51,5.84-3.8,2.22-1.5,4.43-3.02,6.64-4.58,2.35-1.65,4.67-3.36,6.97-5.14-.06.35.11.75.53.75,0,0,.01,0,.02,0-.03.32.14.66.52.66h1.58c.7,0,.71-1.19,0-1.19h-1.58s0,0,0,0c.04-.31-.12-.64-.46-.69,1.84-1.43,3.67-2.89,5.49-4.41,2.15-1.81,4.26-3.72,6.37-5.77,2.1-2.06,4.19-4.25,6.21-6.83,1.01-1.29,2.01-2.69,2.98-4.28.97-1.59,1.91-3.38,2.69-5.61.39-1.12.73-2.35.97-3.73.12-.7.21-1.44.25-2.2h.37c.44,0,.9-.21,1.21-.54.3-.32.52-.85.5-1.31-.02-.48-.16-.98-.5-1.31-.33-.33-.75-.54-1.21-.54h-.52c-.05-.38-.12-.77-.19-1.14-.17-.77-.35-1.52-.63-2.29-.51-1.52-1.25-3.01-2.14-4.28-.64-.94-1.33-1.76-2.05-2.48.21-.72-.14-1.65-1.04-1.65-.24,0-.45.07-.61.19-.75-.59-1.51-1.09-2.23-1.52-.71-.41-1.39-.74-2.07-1.05.54-.7.26-2.07-.83-2.07-.76,0-1.12.66-1.1,1.3-.54-.19-1.06-.36-1.58-.51-.52-.14-1.02-.27-1.52-.38.68-.65.44-2.19-.72-2.19-.99,0-1.31,1.12-.97,1.85-.43-.08-.86-.14-1.28-.2-.18-.44-.56-.76-1.04-.76h-.82c-.33,0-.66.18-.87.46-.79-.06-1.56-.1-2.33-.14-.52-.02-1.04-.02-1.55-.03-.06,0-.11-.02-.17-.02-.04,0-.08,0-.11.01-1.55-.01-3.07.03-4.56.12,0,0-.02,0-.03,0-.3-.09-.56-.05-.78.06-.47.03-.93.06-1.4.09-.07,0-.13.01-.19.02-.28-.03-.55,0-.81.08-2.43.21-4.81.5-7.17.85-5.36.79-10.57,1.89-15.73,3.11-2.58.61-5.13,1.25-7.68,1.92-2.54.68-5.07,1.41-7.59,2.15-5.04,1.48-10.03,3.04-14.98,4.73-4.95,1.68-9.88,3.4-14.77,5.25l-7.32,2.78c-2.43.95-4.85,1.92-7.27,2.9-6.51,2.62-12.96,5.39-19.38,8.26-.3-.17-.58-.33-.89-.51-1.74-.98-25.85-14.55-54.64-12.42-4.02.3-7.72.89-11.14,1.74.53-1.4-.1-3.38-1.93-3.38-2.27,0-2.71,3.07-1.33,4.28-2.51.78-4.84,1.7-7.01,2.75-.3-.12-.6-.24-.92-.33-.6-.19-1.05.16-1.25.64-1.79-1.51-4.21.85-3.33,2.85-2.71,1.83-5.07,3.9-7.1,6.14-.24-.52-.7-.91-1.4-.91-1.85,0-2.08,2.74-.68,3.41-2.75,3.61-4.76,7.59-6.07,11.73-.03,0-.05-.02-.08-.02-1.19,0-1.36,1.68-.54,2.21-.15.59-.29,1.19-.42,1.79-.54-.24-1.08-.46-1.65-.64-.6-.19-1.05.16-1.25.64-2.01-1.69-4.82,1.49-2.87,3.55.73.78.96,1.53.92,2.6-.05,1.28,1.04,2.38,2.19,2.38.04,0,.07,0,.1-.01.2.63.69,1.13,1.49,1.13.19,0,.35-.04.51-.09.02.16.04.33.07.49-.12.44-.03.94.28,1.26.12.46.25.91.4,1.35-1.63,1.06-1.27,4.43,1.11,4.43.19,0,.37-.03.54-.07-.08.38-.02.79.26,1.1.18.2.36.39.54.59-1.16.26-1.09,2.32.23,2.32.08,0,.14-.03.21-.05.05.51.35.97.92,1.03.16.74.64,1.35,1.25,1.69-.06.33.1.73.51.73.29,0,.45-.2.5-.44.66,0,1.32-.34,1.72-1.2.16-.33.3-.66.44-1,.69.35,1.42.66,2.17.94-.29.7.02,1.71.94,1.71.35,0,.61-.15.79-.37.18.22.44.37.79.37.51,0,.84-.32.97-.72.48.1.96.18,1.45.25-.15.33-.17.72-.04,1.06-.08-.05-.17-.09-.28-.09-.29,0-.46.21-.51.45-.24-.52-.7-.92-1.4-.92-2.08,0-2.11,3.45-.09,3.55-.22.35-.08.95.42.95.58,0,.67-.79.31-1.08.71-.31,1.02-1.15.93-1.91.09.08.19.14.34.14.4,0,.57-.39.51-.72.17.19.41.32.74.32.85,0,1.18-.87,1-1.55.38.03.76.06,1.14.07-.14.67.19,1.48,1.01,1.48s1.15-.81,1.01-1.48c1.66-.05,3.36-.22,5.08-.53-.13.35.02.84.48.84.53,0,.66-.67.39-1.01,1.57-.32,3.14-.74,4.72-1.28.05,0,.09.03.15.03.35,0,.62-.15.79-.37.16-.06.33-.11.49-.18.99-.38,1.94-.75,2.87-1.11.1.43.72.67,1.02.18.15-.25.31-.5.46-.75,3.17-1.22,5.95-2.27,8.37-3.19.06,0,.11.02.17.02h.79c.42,0,.86-.2,1.16-.52.1-.11.19-.25.26-.4,3.95-1.49,6.85-2.56,9.04-3.39.01,0,.02,0,.04,0,.29,0,.51-.12.68-.28,8.48-3.19,5.57-2.34,16.02-8.68,13.66-8.3,23.9-11.88,28.83-14.51,3.04-.68,5.69-.57,7.16,1.02,5.23,5.68-3.93,31.95,7.2,31.24,10.33-.66-3.27-19.17,1.31-29.82,4.58-10.65,1.74,5.7,20.94,4.26,18.72-1.4,10.71-17.99,24.3-22.53.9-.2,1.79-.41,2.69-.6.47-.1.95-.19,1.42-.29,2.65-.3,5.34-.17,7.97.16.03.86.55,1.71,1.58,1.71.84,0,1.35-.57,1.52-1.25,1.18.2,2.34.4,3.47.6-.07.41.04.85.31,1.15-.14.67.19,1.47,1.01,1.47,1.05,0,1.32-1.31.8-1.99.02-.09.04-.17.05-.26.16.03.32.05.48.07-.06.64.28,1.32,1.04,1.32.65,0,.98-.5,1.04-1.04,2.91.31,5.34.18,6.98-1.09.15.4.43.73.83.9-.08.14-.13.28-.17.44-1.01-.3-2.27.13-2.78,1.29-.12-.03-.24-.04-.37-.04-2.03,0-2.11,3.28-.24,3.54-.34,1.66-.86,3.26-1.58,4.78-.67,1.41.04,2.74,1.05,3.3-.06.33.1.73.51.73.29,0,.45-.2.5-.44.66,0,1.32-.34,1.72-1.2,1.34-2.82,2.14-5.77,2.48-8.89.1.02.19.03.29.03.05,0,.1-.01.15-.02-.43,1.05.04,2.58,1.43,2.58.78,0,1.27-.48,1.47-1.09.12.18.27.34.46.46-.22.36-.08.95.42.93.45-.02.89-.03,1.34-.04-.77.73-.73,2.25.14,2.88-.96.83-1.93,1.66-2.91,2.47-.04,0-.08-.03-.13-.03-.35,0-.61.15-.79.37-.18-.22-.44-.37-.79-.37-1.08,0-1.33,1.39-.75,2.04-1.35,1.1-2.7,2.19-4.07,3.29-.02.02-.04.03-.06.05-.17-.14-.37-.25-.64-.25-.84,0-1.17.84-1.01,1.52-7.55,5.9-15.32,11.71-23.17,17.46-.82.6-1.64,1.2-2.46,1.8-.09-.14-.22-.23-.42-.23-.47,0-.62.53-.46.88-7.33,5.39-14.74,10.72-22.15,16.08l-25.69,18.49c-4.28,3.1-8.58,6.17-12.84,9.31-4.29,3.1-8.53,6.28-12.78,9.46-8.46,6.44-16.89,12.95-24.73,20.57-1.94,1.93-3.86,3.92-5.65,6.13-1.78,2.22-3.5,4.58-4.79,7.53-.63,1.48-1.15,3.15-1.25,5.04-.04.94.01,1.93.23,2.91.11.48.25.96.43,1.42.17.45.33.77.5,1.16,1.13,2.41,2.96,4.53,5.08,6.01.77,1.74,1.49,4.79,1.15,9.95-.65,9.94-3.93,21.3,3.27,22.01,7.2.71,0-9.23,0-17.04s-2.62-13.49,3.27-8.52c5.89,4.97,10.47,0,11.12-2.84.05-.22-.04-.44-.23-.65,5.2-.62,10.22-1.83,15.16-3.19,5.06-1.42,10.03-3.06,14.96-4.8,4.92-1.75,9.81-3.57,14.64-5.52,9.68-3.86,19.25-7.94,28.75-12.14l28.44-12.64c9.48-4.18,18.99-8.25,28.5-12.28,19.04-8.02,38.24-15.51,57.69-22.03,19.44-6.55,39.18-11.99,59.13-15.91,5-.98,9.96-1.85,15.04-2.63,5.06-.8,10.12-1.58,15.2-2.28,10.14-1.43,20.3-2.7,30.46-3.91,20.32-2.46,40.71-4.04,61.1-5.33,3.52-.24,7.05-.46,10.57-.69.34.36.8.53,1.34.38.26-.08.52-.26.71-.51.43-.03.87-.06,1.3-.08-.58.31-1.16.63-1.73.94-.08.03-.15.07-.22.12-.69.37-1.38.75-2.07,1.12-1.67.91-.2,3.63,1.47,2.72l1.9-1.03c.08-.03.15-.07.22-.12.69-.37,1.38-.75,2.07-1.12,1.19-.65.78-2.21-.15-2.73.11,0,.22-.02.33-.02.22.4.62.7,1.18.7.64,0,1.06-.37,1.26-.86.18-.01.36-.02.54-.04,0,.02-.02.04-.03.06-.89,1.88.05,3.63,1.39,4.38-.08.44.13.97.67.97.38,0,.6-.27.67-.58.88.01,1.75-.45,2.28-1.59.57-1.21,1.07-2.45,1.5-3.7,1.48-.11,2.96-.22,4.44-.34.29.76.92,1.35,1.91,1.35.21,0,.39-.03.57-.08,1.7,2.96,3.87,8.43,5.24,18.14-.52.97-.38,2.34.39,3.1.14,1.28.28,2.62.39,4.03,1.96,24.14-7.85,51.12,5.89,48.28,13.74-2.84,3.27-11.36,1.31-34.79-.76-9.1-.76-17.87-.47-25.21ZM234.67,43.07c-.21,0-.4.08-.57.2-.06-.1-.13-.19-.2-.27-.15-.16-.35-.3-.57-.4.48-.99.1-2.47-1.12-2.66.19-.54.33-1.15.43-1.83.13-.12.21-.25.27-.4.51-.08.8-.49.86-.96.1,0,.2-.02.3-.03.06.53.39,1.02,1.03,1.02.49,0,.79-.29.95-.66-.17.71.18,1.58,1.06,1.58.52,0,.85-.31,1-.71.13.3.36.52.71.6.1.48.42.91,1.01.91.21,0,.38-.07.53-.16.27.26.62.38,1.02.27.54-.15,1.03-.9.8-1.52-.22-.58-.44-1.16-.67-1.74.97-.02,1.93,0,2.87.02.04.07.07.14.12.2.18.2.36.39.54.59-.21.05-.38.16-.52.31-.18-.2-.42-.34-.75-.34-1.06,0-1.32,1.34-.79,2.01-.46.25-.92.5-1.38.75-.06.03-.12.06-.18.1-.22.12-.44.24-.66.36-.15-.36-.46-.64-.94-.64-1.16,0-1.35,1.6-.6,2.16.01.26.1.51.25.73-.14-.04-.28-.06-.44-.06-.29,0-.54.07-.75.19-.03-.04-.04-.09-.07-.12-.44-.48-1.1-.42-1.55,0-.28.26-.63.44-1.01.52-.33,0-.67,0-1,0ZM238.1,36.9c-.07-.17-.17-.33-.3-.45.23-.01.47-.03.7-.04-.18.12-.31.29-.39.49ZM253.56,38.06c.06.04.05.04,0,0h0ZM236.32,36.54c-.09.1-.16.22-.22.35.03-.11.05-.23.05-.34.06,0,.11,0,.17-.01ZM252.15,37.4s.1.03.14.05c-.11.2-.22.4-.35.62.07-.22.14-.44.21-.66ZM238.28,45.89s0-.02.02-.03c.21.11.46.19.74.19.13,0,.24-.01.35-.04.16.38.48.67.99.67,1.38,0,1.46-2.19.24-2.44,0-.42-.13-.83-.37-1.15.22.04.46,0,.7-.13.5-.27.99-.54,1.49-.81.06-.03.12-.06.17-.09.54-.29,1.08-.59,1.62-.88.81-.44.68-1.42.15-1.94.03-.02.06-.04.08-.07.18.24.46.39.83.39.97,0,1.3-1.08.98-1.82.24-.03.48-.12.65-.33.22-.26.33-.61.31-.94.13.01.27.02.4.03-.27.81-.58,1.61-.95,2.39-.7,1.47.04,2.85,1.09,3.44-.05.29.06.61.33.72-.16.18-.33.36-.5.54-.2-.62-.69-1.11-1.48-1.11-.9,0-1.41.64-1.55,1.38-.17-.32-.48-.55-.93-.55-.91,0-1.26.96-1.03,1.68-.22.72.12,1.68,1.03,1.68s1.23-.89,1.05-1.6c.14.34.38.63.71.8-.91.92-1.86,1.82-2.83,2.72-1.43-.08-2.85-.11-4.28-.08.59-.71.58-1.94-.03-2.64ZM241.37,49.73c-.28.25-.55.51-.83.76-.09-.3-.25-.57-.47-.78.43,0,.87,0,1.3.02ZM36.16,73.2s0,.07,0,.1c-.16-.77-.43-1.5-.79-2.19.34.13.68.28,1.01.44-.08.55-.15,1.1-.21,1.65ZM41.29,88.92c-.11-.04-.23-.08-.36-.08-.08,0-.14.03-.21.05-.01-.15-.05-.29-.11-.42.21-.03.41-.11.57-.27.1.09.2.18.3.27-.06.15-.12.3-.19.45ZM235.56,46.54c-.16-.23-.37-.41-.65-.52.08-.17.14-.36.17-.56.17,0,.34,0,.51-.02.29,0,.58,0,.86,0,0,.02,0,.03,0,.05-.46.19-.76.58-.91,1.04ZM117.62,156.61c-2.2,4.44-2.8,7.94-1.83,10.71,1.9,5.42,7.68,8.12,17.48,8.12,1.44,0,2.97-.06,4.58-.18-1.18.46-2.35.91-3.53,1.35-8.92,1.5-28.68,3.49-27.16-8.63.82-6.55,8.56-14.6,17.26-21.74-2.81,3.61-5.2,7.17-6.79,10.38ZM496.97,65.96s0-.04,0-.06c0-.03,0-.05,0-.08.95.02,1.9.04,2.85.07-.18.59-.21,1.23-.1,1.84-.48.06-.97.11-1.45.17-.08-.84-.51-1.62-1.3-1.94ZM511.6,66.39c-.15.02-.3.03-.45.05.01-.02.02-.05.03-.07.14,0,.28.01.42.02ZM531.31,94.2l-1.75.95c0-.17.02-.35.03-.52.47-.38.79-1.09.56-1.69-.04-.11-.08-.21-.12-.32.75.55,1.54,1.04,2.39,1.47-.33-.12-.71-.11-1.1.1Z"/>
      <path class="cls-1" d="M241.98,149.63c-3.11,1.13-76.37,27.94-92.78,40.76-.88.69-1.08,2.02-.45,2.97.38.58.98.89,1.59.89.4,0,.8-.13,1.15-.4,15.93-12.45,90.98-39.9,91.74-40.18,1.03-.38,1.58-1.58,1.24-2.7s-1.46-1.71-2.49-1.34Z"/>
      <path class="cls-1" d="M451.34,57.23c.45,0,.91-.17,1.27-.51,2.24-1.48,22.74-7.86,45.36-11.39,5.79-.9,11.24-1.55,16.33-1.94.33.59.9,1.01,1.72,1.03-2.46.36-2.36,4.69.33,4.69s2.81-4.67.05-4.72c.77-.11,1.28-.61,1.55-1.24,18.04-.98,31.07,1.46,37.5,7.21.84.75,2.07.62,2.76-.29.69-.91.57-2.25-.27-3-12.29-10.98-40.26-9.21-61.57-5.79-21.92,3.52-44.43,10.16-46.41,12.32-.77.83-.77,2.18,0,3.01.38.42.89.62,1.39.62Z"/>
    </g>
  </g>
</svg>